SplineFontDB: 3.0
FontName: Untitled1
FullName: Untitled1
FamilyName: Untitled1
Weight: Regular
Copyright: Copyright (c) 2018, Alireza Alipour
UComments: "2018-12-1: Created with FontForge (http://fontforge.org)"
Version: 001.000
ItalicAngle: 0
UnderlinePosition: -409
UnderlineWidth: 204
Ascent: 2458
Descent: 1638
InvalidEm: 0
LayerCount: 3
Layer: 0 0 "Back" 1
Layer: 1 0 "Fore" 0
Layer: 2 0 "With Intersection" 1
XUID: [1021 621 -37808773 11451075]
StyleMap: 0x0000
FSType: 0
OS2Version: 0
OS2_WeightWidthSlopeOnly: 0
OS2_UseTypoMetrics: 1
CreationTime: 1543651486
ModificationTime: 1550943541
OS2TypoAscent: 0
OS2TypoAOffset: 1
OS2TypoDescent: 0
OS2TypoDOffset: 1
OS2TypoLinegap: 369
OS2WinAscent: 0
OS2WinAOffset: 1
OS2WinDescent: 0
OS2WinDOffset: 1
HheadAscent: 0
HheadAOffset: 1
HheadDescent: 0
HheadDOffset: 1
OS2Vendor: 'PfEd'
Lookup: 2 0 0 "'ccmp' For decomposing lowercase letters" { "'ccmp' For decomposing lowercase letters-1"  } ['ccmp' ('DFLT' <'dflt' > 'latn' <'dflt' > ) ]
Lookup: 1 0 0 "'aalt' For replacing starting part of glyphs with intermediate glyph for that connect two ghyphs" { "'aalt' For replacing starting part of glyphs with intermediate glyph for that connect two ghyphs-1"  } ['aalt' ('DFLT' <'dflt' > 'latn' <'dflt' > ) ]
Lookup: 6 0 0 "'calt' For replacing first parts of glyphs with intermedite glyphs(null1 and null2)" { "'calt' For replacing first parts of glyphs with intermedite glyphs(null1 and null2)-1"  } ['calt' ('DFLT' <'dflt' > 'latn' <'dflt' > ) ]
Lookup: 259 0 0 "'curs'" { "'curs'-1"  } [' RQD' ('DFLT' <'dflt' > 'latn' <'dflt' > ) 'curs' ('DFLT' <'dflt' > 'latn' <'dflt' > ) ]
MarkAttachClasses: 1
DEI: 91125
ChainSub2: coverage "'calt' For replacing first parts of glyphs with intermedite glyphs(null1 and null2)-1" 0 0 0 1
 2 0 0
  Coverage: 114 part6 part7 part8 part9 part11 part54 part17 part18 part20 part25 part27 part29 part36 part37 part42 part52 part57
  Coverage: 67 part0 part5 part10 part11 part12 part14 part21 part42 part55 part56
 1

StartChar: O
Encoding: 15 79 0
Width: 2867
VWidth: 0
InSpiro: 1
Flags: W
HStem: 2403.03 20.6357<1544.91 1808.35> 2499.64 2.76562<1592.53 1687.41>
VStem: 253.952 57.3438<715.513 1249.72> 2547.71 24.5762<1324.6 1645.49>
LayerCount: 3
Fore
SplineSet
2211.83984375 2351.10351562 m 1
 2035.45410156 2450.55078125 1832.96875 2503.0625 1630.48144531 2502.40527344 c 0
 1427.99414062 2501.74707031 1226.42773438 2447.90332031 1048.57617188 2351.10351562 c 0
 825.57421875 2229.73046875 641.163085938 2042.92578125 507.904296875 1826.81640625 c 0
 341.901367188 1557.60449219 246.024414062 1241.87402344 253.952148438 925.696289062 c 0
 257.609375 779.830078125 285.39453125 633.598632812 345.266601562 500.536132812 c 0
 405.138671875 367.47265625 498.280273438 248.734375 616.953125 163.83984375 c 0
 731.407226562 81.9638671875 868.0078125 32.611328125 1007.8671875 17.0283203125 c 0
 1147.7265625 1.4462890625 1290.18164062 18.3916015625 1425.40820312 57.34375 c 0
 1685.92578125 132.38671875 1921.4765625 283.788085938 2113.53613281 475.135742188 c 0
 2251.48925781 612.579101562 2367.47363281 772.84375 2449.0703125 949.659179688 c 0
 2530.66699219 1126.47460938 2577.27246094 1320.84863281 2572.28808594 1515.51953125 c 0
 2568.34765625 1669.41699219 2531.53417969 1823.10253906 2459.49121094 1959.15234375 c 0
 2387.44824219 2095.20214844 2279.84765625 2212.61523438 2149.02246094 2293.75976562 c 0
 2019.44628906 2374.12988281 1868.19042969 2418.29394531 1715.80761719 2423.66113281 c 0
 1563.42480469 2429.02832031 1410.61035156 2396.33300781 1270.84765625 2335.37792969 c 0
 991.3203125 2213.46777344 765.233398438 1985.36132812 614.400390625 1720.3203125 c 0
 459.946289062 1448.91796875 383.173828125 1125.81152344 442.368164062 819.200195312 c 0
 468.775390625 682.416015625 521.74609375 550.751953125 598.015625 434.17578125 c 1
 605.528320312 442.368164062 l 1
 533.477539062 557.244140625 483.598632812 685.893554688 458.751953125 819.200195312 c 0
 402.060546875 1123.35546875 478.01953125 1443.078125 630.784179688 1712.12792969 c 0
 776.65625 1969.0390625 994.022460938 2191.046875 1263.61621094 2311.8828125 c 0
 1398.41308594 2372.30078125 1545.9453125 2405.82617188 1693.63671875 2403.02539062 c 0
 1841.328125 2400.22363281 1988.54785156 2360.40527344 2115.90527344 2285.56835938 c 0
 2242.63574219 2211.09960938 2348.71582031 2102.51074219 2422.35449219 1975.296875 c 0
 2495.99414062 1848.08300781 2537.43261719 1703.11035156 2547.71191406 1556.48046875 c 0
 2560.32128906 1376.61230469 2526.77050781 1194.76171875 2459.69042969 1027.39453125 c 0
 2392.609375 860.028320312 2292.49804688 706.55859375 2170.87988281 573.440429688 c 0
 1983.92285156 368.801757812 1746.71777344 207.44921875 1482.75195312 122.879882812 c 0
 1346.72753906 79.2998046875 1202.65234375 57.62890625 1060.34863281 69.951171875 c 0
 918.045898438 82.2744140625 778.1875 130.15625 661.825195312 212.9921875 c 0
 550.0859375 292.537109375 461.563476562 403.12890625 403.561523438 527.421875 c 0
 345.55859375 651.715820312 317.122070312 788.659179688 311.295898438 925.696289062 c 0
 298.302734375 1231.33007812 387.838867188 1537.24316406 540.671875 1802.24023438 c 0
 667.540039062 2022.21777344 844.977539062 2216.05175781 1064.95996094 2342.91210938 c 0
 1237.52246094 2442.42578125 1435.48632812 2498.77734375 1634.68554688 2499.63964844 c 0
 1833.88378906 2500.50195312 2033.11621094 2445.8671875 2203.6484375 2342.91210938 c 1
 2211.83984375 2351.10351562 l 1
  Spiro
    2211.84 2351.1 v
    1048.58 2351.1 o
    507.904 1826.82 o
    253.952 925.696 o
    616.953 163.84 o
    1425.41 57.344 o
    2113.54 475.136 o
    2572.29 1515.52 o
    2149.02 2293.76 o
    614.4 1720.32 o
    442.368 819.2 o
    598.016 434.176 v
    605.528 442.368 v
    458.752 819.2 o
    630.784 1712.13 o
    2115.9 2285.57 o
    2547.71 1556.48 o
    2170.88 573.44 o
    1482.75 122.88 o
    661.825 212.992 o
    311.296 925.696 o
    540.672 1802.24 o
    1064.96 2342.91 o
    2203.65 2342.91 v
    0 0 z
  EndSpiro
EndSplineSet
Validated: 41
EndChar

StartChar: A
Encoding: 1 65 1
Width: 3293
VWidth: 0
InSpiro: 1
Flags: HW
HStem: 0 172G<2097 2173> 16 33<561 836> 639 164G<2646 2679> 854 15<2233 2349> 2294 164G<3140 3293>
VStem: 1 26<574 819> 2097 16<0 20>
LayerCount: 3
Fore
SplineSet
3276.79980469 2457.59960938 m 1xbe
 3293.18359375 2457.59960938 l 1
 3021.20019531 2084.54394531 2783.70410156 1686.3515625 2584.71972656 1269.75976562 c 0
 2389.87988281 861.83203125 2231.96777344 436.280273438 2113.53613281 0 c 1
 2097.15234375 0 l 1
 2213.03222656 436.49609375 2369.57617188 862.18359375 2564.09570312 1269.75976562 c 0
 2763.28027344 1687.11230469 3002.28027344 2085.44824219 3276.79980469 2457.59960938 c 1xbe
  Spiro
    3276.8 2457.6 v
    3293.18 2457.6 v
    2584.72 1269.76 o
    2113.54 0 v
    2097.15 0 v
    2564.1 1269.76 o
    0 0 z
  EndSpiro
3293.18359375 2457.59960938 m 1
 3078.20019531 2317.24804688 2877.76757812 2154.75195312 2695.16796875 1974.27246094 c 0
 2494.97558594 1776.41601562 2317.43164062 1556.61621094 2154.49609375 1327.10351562 c 0
 1898.95214844 967.143554688 1686.83203125 565.83984375 1351.6796875 278.528320312 c 0
 1183.3203125 134.200195312 975.18359375 26.568359375 753.6640625 16.3837890625 c 0
 616.200195312 10.064453125 476.84765625 41.65625 356.864257812 109.040039062 c 0
 236.879882812 176.423828125 136.624023438 279.015625 73.7275390625 401.408203125 c 0
 30.3916015625 485.744140625 4.7998046875 579.400390625 1.3115234375 674.16015625 c 0
 -2.18359375 768.912109375 16.751953125 864.576171875 57.34375 950.272460938 c 0
 132.967773438 1109.92773438 284.791992188 1228.43164062 455.208007812 1275.0078125 c 0
 625.616210938 1321.58398438 810.280273438 1301.22363281 974.84765625 1236.9921875 c 0
 1171.36816406 1160.28808594 1342.84765625 1022.9921875 1466.36816406 851.967773438 c 1
 1458.17578125 843.776367188 l 1
 1305.04785156 1054.40820312 1074.79980469 1211.71972656 819.200195312 1261.56835938 c 0
 672.375976562 1290.20019531 516.423828125 1281.54394531 378.599609375 1223.38378906 c 0
 240.784179688 1165.23242188 124.16796875 1055.12792969 65.5361328125 917.50390625 c 0
 24.2802734375 820.65625 11.6318359375 712.192382812 27 608.047851562 c 0
 42.3759765625 503.904296875 85.0078125 404.240234375 147.456054688 319.48828125 c 0
 260.408203125 166.192382812 440.927734375 63.7763671875 630.784179688 49.15234375 c 0x7e
 755.135742188 39.576171875 880.927734375 66.4482421875 994.543945312 117.896484375 c 0
 1108.15234375 169.3359375 1210.07226562 243.975585938 1302.52832031 327.6796875 c 0
 1629.53613281 623.751953125 1870.95214844 1000.65625 2138.11230469 1351.6796875 c 0
 2307.23242188 1573.88769531 2480.6796875 1793.85644531 2678.78417969 1990.65625 c 0
 2858.65625 2169.3515625 3059.05566406 2327.70410156 3276.79980469 2457.59960938 c 1
 3293.18359375 2457.59960938 l 1
  Spiro
    3293.18 2457.6 v
    2695.17 1974.27 o
    2154.5 1327.1 o
    1351.68 278.528 o
    753.663 16.384 o
    73.7238 401.408 o
    57.3398 950.272 o
    974.848 1236.99 o
    1466.37 851.968 v
    1458.18 843.776 v
    819.199 1261.57 o
    65.5318 917.504 o
    147.452 319.488 o
    630.78 49.152 o
    1302.53 327.68 o
    2138.11 1351.68 o
    2678.78 1990.66 o
    3276.8 2457.6 v
    0 0 z
  EndSpiro
2383.87207031 851.967773438 m 1
 2375.6796875 835.583984375 l 1
 2338.38378906 854.255859375 2295.07226562 860.759765625 2253.97558594 853.65625 c 0
 2212.87207031 846.559570312 2174 825.81640625 2146.30371094 794.624023438 c 0
 2118.63964844 763.463867188 2102.78417969 721.528320312 2105.34375 679.935546875 c 0
 2107.04785156 652.223632812 2116.75195312 625.095703125 2132.70410156 602.368164062 c 0
 2148.65625 579.639648438 2170.65625 561.3515625 2195.45605469 548.864257812 c 0
 2224.69628906 534.135742188 2257.65625 527.391601562 2290.39160156 527.51953125 c 0
 2323.12792969 527.6484375 2355.671875 534.51171875 2386.3359375 545.967773438 c 0
 2447.6796875 568.864257812 2501.3203125 609.16015625 2547.71191406 655.360351562 c 0
 2591.94433594 699.408203125 2630.20800781 749.3359375 2662.40039062 802.81640625 c 1
 2678.78417969 802.81640625 l 1
 2646.70410156 749.263671875 2608.34375 699.391601562 2564.09570312 655.360351562 c 0
 2516.61621094 608.112304688 2461.88769531 567.055664062 2399.78417969 541.967773438 c 0
 2337.671875 516.879882812 2266.34375 508.896484375 2203.6484375 532.48046875 c 0
 2172.78417969 544.087890625 2144.60839844 563.391601562 2124.0078125 589.135742188 c 0
 2103.40039062 614.879882812 2090.75195312 647.0078125 2088.95996094 679.935546875 c 0
 2087.40820312 708.536132812 2093.95996094 737.431640625 2107.06445312 762.904296875 c 0
 2120.16796875 788.368164062 2139.63964844 810.391601562 2162.68847656 827.391601562 c 0
 2193.86425781 850.391601562 2231.48046875 864.303710938 2270.0078125 868.375976562 c 0
 2308.53613281 872.456054688 2348.04003906 866.704101562 2383.87207031 851.967773438 c 1
  Spiro
    2383.87 851.968 v
    2375.68 835.584 v
    2146.3 794.624 o
    2105.34 679.936 o
    2195.46 548.864 o
    2547.71 655.36 o
    2662.4 802.816 v
    2678.78 802.816 v
    2564.1 655.36 o
    2203.65 532.48 o
    2088.96 679.936 o
    2162.69 827.392 o
    0 0 z
  EndSpiro
EndSplineSet
Validated: 37
EndChar

StartChar: N
Encoding: 14 78 2
Width: 4096
VWidth: 0
InSpiro: 1
Flags: HW
LayerCount: 3
Fore
SplineSet
2236.41601562 0 m 1
 2500.31152344 454.83203125 2846.11230469 861.984375 3252.22363281 1196.03222656 c 0
 3454.29589844 1362.24804688 3671.15234375 1510.47167969 3899.39160156 1638.40039062 c 1
 3923.96777344 1638.40039062 l 1
 3693.09570312 1507.43164062 3473.55957031 1356.50390625 3268.60839844 1187.83984375 c 0
 2862.984375 854.040039062 2515 450.375976562 2244.60839844 0 c 1
 2236.41601562 0 l 1
  Spiro
    3252.22 1196.03 o
    3899.39 1638.4 v
    3923.97 1638.4 v
    3268.61 1187.84 o
    2244.61 0 v
    2236.42 0 v
    0 0 z
  EndSpiro
3416.06445312 2457.59960938 m 1
 3432.44824219 2457.59960938 l 1
 3160.46191406 2084.54589844 2922.96972656 1686.35449219 2723.98730469 1269.75976562 c 0
 2529.14453125 861.834960938 2371.22851562 436.28125 2252.79980469 0 c 1
 2236.41601562 0 l 1
 2352.29589844 436.495117188 2508.83984375 862.184570312 2703.36035156 1269.75976562 c 0
 2902.54589844 1687.11132812 3141.54785156 2085.44726562 3416.06445312 2457.59960938 c 1
  Spiro
    3416.06 2457.6 v
    3432.45 2457.6 v
    2723.99 1269.76 o
    2252.8 0 v
    2236.42 0 v
    2703.36 1269.76 o
    0 0 z
  EndSpiro
3432.44824219 2457.59960938 m 1
 3217.46679688 2317.24902344 3017.03320312 2154.74902344 2834.43164062 1974.27246094 c 0
 2634.24414062 1776.41308594 2456.69628906 1556.61523438 2293.75976562 1327.10351562 c 0
 2038.21289062 967.141601562 1826.09570312 565.84375 1490.94433594 278.528320312 c 0
 1322.5859375 134.200195312 1114.44824219 26.5673828125 892.927734375 16.3837890625 c 0
 755.463867188 10.064453125 616.110351562 41.6552734375 496.127929688 109.0390625 c 0
 376.146484375 176.422851562 275.885742188 279.012695312 212.9921875 401.408203125 c 0
 169.654296875 485.74609375 144.06640625 579.400390625 140.57421875 674.157226562 c 0
 137.081054688 768.915039062 156.016601562 864.578125 196.608398438 950.272460938 c 0
 272.233398438 1109.92675781 424.059570312 1228.42871094 594.46875 1275.00585938 c 0
 764.877929688 1321.58300781 949.54296875 1301.22460938 1114.11230469 1236.9921875 c 0
 1310.63476562 1160.28808594 1482.11523438 1022.98925781 1605.63183594 851.967773438 c 1
 1597.44042969 843.776367188 l 1
 1444.30957031 1054.40917969 1214.06152344 1211.71875 958.463867188 1261.56835938 c 0
 811.640625 1290.203125 655.6875 1281.54296875 517.866210938 1223.38671875 c 0
 380.043945312 1165.23046875 263.428710938 1055.12597656 204.799804688 917.50390625 c 0
 163.541015625 820.655273438 150.8984375 712.193359375 166.267578125 608.05078125 c 0
 181.63671875 503.907226562 224.275390625 404.23828125 286.719726562 319.48828125 c 0
 399.670898438 166.189453125 580.193359375 63.7763671875 770.047851562 49.15234375 c 0
 894.3984375 39.5732421875 1020.19140625 66.44921875 1133.80566406 117.89453125 c 0
 1247.41992188 169.338867188 1349.33691406 243.97265625 1441.79199219 327.6796875 c 0
 1768.79980469 623.748046875 2010.21777344 1000.65722656 2277.37597656 1351.6796875 c 0
 2446.49316406 1573.88476562 2619.94628906 1793.85351562 2818.04785156 1990.65625 c 0
 2997.921875 2169.35058594 3198.31640625 2327.70703125 3416.06445312 2457.59960938 c 1
 3432.44824219 2457.59960938 l 1
  Spiro
    3432.45 2457.6 v
    2834.43 1974.27 o
    2293.76 1327.1 o
    1490.94 278.528 o
    892.928 16.384 o
    212.992 401.408 o
    196.608 950.272 o
    1114.11 1236.99 o
    1605.63 851.968 v
    1597.44 843.776 v
    958.464 1261.57 o
    204.8 917.504 o
    286.72 319.488 o
    770.048 49.152 o
    1441.79 327.68 o
    2277.38 1351.68 o
    2818.05 1990.66 o
    3416.06 2457.6 v
    0 0 z
  EndSpiro
EndSplineSet
Validated: 37
EndChar

StartChar: M
Encoding: 13 77 3
Width: 5062
VWidth: 0
InSpiro: 1
Flags: HW
LayerCount: 3
Fore
SplineSet
4022.27246094 2457.59960938 m 1
 3383.29589844 1122.30371094 l 2
 3297.140625 942.26171875 3193.01269531 770.334960938 3121.57617188 583.961914062 c 0
 3085.85742188 490.775390625 3061.82714844 390.536132812 3073.43945312 291.416992188 c 0
 3079.24609375 241.856445312 3094.22753906 193.052734375 3120.07910156 150.373046875 c 0
 3145.93066406 107.692382812 3182.94238281 71.31640625 3227.6484375 49.15234375 c 0
 3288.75097656 18.857421875 3361.14160156 16.5341796875 3427.42675781 32.583984375 c 0
 3493.71191406 48.634765625 3554.79199219 81.853515625 3610.45507812 121.259765625 c 0
 3721.78222656 200.073242188 3816.66015625 299.506835938 3915.77636719 393.215820312 c 2
 4366.3359375 819.200195312 l 1
 4382.71972656 819.200195312 l 1
 3932.16015625 385.024414062 l 2
 3831.66699219 288.185546875 3734.84863281 186.0546875 3620.36230469 106.247070312 c 0
 3563.11816406 66.34375 3500.31054688 33.0068359375 3432.41796875 16.890625 c 0
 3364.52636719 0.7734375 3290.74804688 2.9765625 3227.6484375 32.767578125 c 0
 3180.74902344 54.9111328125 3141.33300781 91.599609375 3113.07519531 135.088867188 c 0
 3084.81738281 178.578125 3067.44726562 228.686523438 3059.53125 279.942382812 c 0
 3043.70019531 382.455078125 3064.76464844 487.57421875 3099.16503906 585.430664062 c 0
 3167.96679688 781.145507812 3276.00488281 960.403320312 3366.91210938 1146.87988281 c 2
 4005.88769531 2457.59960938 l 1
 4022.27246094 2457.59960938 l 1
  Spiro
    4022.27 2457.6 v
    3383.3 1122.3 ]
    3227.65 49.152 c
    3915.78 393.216 [
    4366.34 819.2 v
    4382.72 819.2 v
    3932.16 385.024 ]
    3227.65 32.768 c
    3366.91 1146.88 [
    4005.89 2457.6 v
    0 0 z
  EndSpiro
2236.41601562 0 m 1
 2470.25585938 411.024414062 2724.62402344 810.368164062 2998.27246094 1196.03222656 c 0
 3309.87207031 1635.20019531 3646.47167969 2056.62402344 4005.88769531 2457.59960938 c 1
 4022.27246094 2457.59960938 l 1
 3666.44824219 2058.58398438 3332.63183594 1639.94433594 3022.84765625 1204.22363281 c 0
 2746.65625 815.744140625 2489.55957031 413.696289062 2252.79980469 0 c 1
 2236.41601562 0 l 1
  Spiro
    2998.27 1196.03 o
    4005.89 2457.6 v
    4022.27 2457.6 v
    3022.85 1204.22 o
    2252.8 0 v
    2236.42 0 v
    0 0 z
  EndSpiro
3416.06445312 2457.59960938 m 1
 3432.44824219 2457.59960938 l 1
 3160.46191406 2084.54589844 2922.96972656 1686.35449219 2723.98730469 1269.75976562 c 0
 2529.14453125 861.834960938 2371.22851562 436.28125 2252.79980469 0 c 1
 2236.41601562 0 l 1
 2352.29589844 436.495117188 2508.83984375 862.184570312 2703.36035156 1269.75976562 c 0
 2902.54589844 1687.11132812 3141.54785156 2085.44726562 3416.06445312 2457.59960938 c 1
  Spiro
    3416.06 2457.6 v
    3432.45 2457.6 v
    2723.99 1269.76 o
    2252.8 0 v
    2236.42 0 v
    2703.36 1269.76 o
    0 0 z
  EndSpiro
3432.44824219 2457.59960938 m 1
 3217.46679688 2317.24902344 3017.03320312 2154.74902344 2834.43164062 1974.27246094 c 0
 2634.24414062 1776.41308594 2456.69628906 1556.61523438 2293.75976562 1327.10351562 c 0
 2038.21289062 967.141601562 1826.09570312 565.84375 1490.94433594 278.528320312 c 0
 1322.5859375 134.200195312 1114.44824219 26.5673828125 892.927734375 16.3837890625 c 0
 755.463867188 10.064453125 616.110351562 41.6552734375 496.127929688 109.0390625 c 0
 376.146484375 176.422851562 275.885742188 279.012695312 212.9921875 401.408203125 c 0
 169.654296875 485.74609375 144.06640625 579.400390625 140.57421875 674.157226562 c 0
 137.081054688 768.915039062 156.016601562 864.578125 196.608398438 950.272460938 c 0
 272.233398438 1109.92675781 424.059570312 1228.42871094 594.46875 1275.00585938 c 0
 764.877929688 1321.58300781 949.54296875 1301.22460938 1114.11230469 1236.9921875 c 0
 1310.63476562 1160.28808594 1482.11523438 1022.98925781 1605.63183594 851.967773438 c 1
 1597.44042969 843.776367188 l 1
 1444.30957031 1054.40917969 1214.06152344 1211.71875 958.463867188 1261.56835938 c 0
 811.640625 1290.203125 655.6875 1281.54296875 517.866210938 1223.38671875 c 0
 380.043945312 1165.23046875 263.428710938 1055.12597656 204.799804688 917.50390625 c 0
 163.541015625 820.655273438 150.8984375 712.193359375 166.267578125 608.05078125 c 0
 181.63671875 503.907226562 224.275390625 404.23828125 286.719726562 319.48828125 c 0
 399.670898438 166.189453125 580.193359375 63.7763671875 770.047851562 49.15234375 c 0
 894.3984375 39.5732421875 1020.19140625 66.44921875 1133.80566406 117.89453125 c 0
 1247.41992188 169.338867188 1349.33691406 243.97265625 1441.79199219 327.6796875 c 0
 1768.79980469 623.748046875 2010.21777344 1000.65722656 2277.37597656 1351.6796875 c 0
 2446.49316406 1573.88476562 2619.94628906 1793.85351562 2818.04785156 1990.65625 c 0
 2997.921875 2169.35058594 3198.31640625 2327.70703125 3416.06445312 2457.59960938 c 1
 3432.44824219 2457.59960938 l 1
  Spiro
    3432.45 2457.6 v
    2834.43 1974.27 o
    2293.76 1327.1 o
    1490.94 278.528 o
    892.928 16.384 o
    212.992 401.408 o
    196.608 950.272 o
    1114.11 1236.99 o
    1605.63 851.968 v
    1597.44 843.776 v
    958.464 1261.57 o
    204.8 917.504 o
    286.72 319.488 o
    770.048 49.152 o
    1441.79 327.68 o
    2277.38 1351.68 o
    2818.05 1990.66 o
    3416.06 2457.6 v
    0 0 z
  EndSpiro
EndSplineSet
Validated: 37
EndChar

StartChar: T
Encoding: 20 84 4
Width: 4628
VWidth: 0
InSpiro: 1
Flags: HW
LayerCount: 3
Fore
SplineSet
4284.41601562 2457.59960938 m 1
 4308.9921875 2457.59960938 l 1
 4211.78710938 2382.23046875 4098.51953125 2327.86425781 3979.14550781 2298.21289062 c 0
 3859.77148438 2268.56152344 3734.9453125 2264.00976562 3612.671875 2277.37597656 c 0
 3387.84472656 2301.953125 3172.96777344 2384.33398438 2949.12011719 2416.63964844 c 0
 2807.80566406 2437.03515625 2662.62011719 2438.94140625 2523.13574219 2408.44824219 c 0
 2415.84863281 2384.99316406 2312.00585938 2340.18652344 2228.22363281 2269.18359375 c 0
 2166.95410156 2217.25976562 2115.73730469 2153.06835938 2080.76757812 2080.76757812 c 0
 2057.2734375 2032.19140625 2041.20507812 1978.84863281 2043.25097656 1924.92675781 c 0
 2044.27441406 1897.96582031 2050.0234375 1871.02441406 2061.65820312 1846.68164062 c 0
 2073.29296875 1822.33886719 2090.97753906 1800.65625 2113.53613281 1785.85644531 c 0
 2134.16113281 1772.32519531 2158.44433594 1764.79492188 2183.02050781 1762.67773438 c 0
 2207.59667969 1760.56054688 2232.47851562 1763.72851562 2256.19335938 1770.515625 c 0
 2303.62304688 1784.09082031 2346.17871094 1811.37109375 2383.87207031 1843.20019531 c 0
 2425.42285156 1878.28710938 2462.03320312 1919.2578125 2492.18945312 1964.515625 c 0
 2522.34570312 2009.77246094 2545.703125 2060.1171875 2555.90429688 2113.53613281 c 0
 2568.45703125 2179.27539062 2559.50976562 2249.61132812 2526.99414062 2308.109375 c 0
 2494.47753906 2366.60742188 2439.11621094 2411.68847656 2375.6796875 2433.02441406 c 0
 2306.39550781 2456.32617188 2229.24414062 2451.62011719 2160.72070312 2426.16699219 c 0
 2092.19726562 2400.71386719 2031.92578125 2355.7734375 1982.46386719 2301.95214844 c 0
 1870.40136719 2180.01171875 1808.81542969 2016.34570312 1794.04785156 1851.39160156 c 1
 1785.85644531 1859.58398438 l 1
 1804.203125 2009.80761719 1856.90234375 2157.82226562 1949.69628906 2277.37597656 c 0
 1999.6171875 2341.69335938 2062.71875 2397.26464844 2137.46386719 2429.54296875 c 0
 2212.20996094 2461.82128906 2299.00292969 2468.59179688 2375.6796875 2441.21582031 c 0
 2444.32714844 2416.70703125 2502.67773438 2365.37890625 2537.09570312 2301.12597656 c 0
 2571.51367188 2236.87304688 2582.32421875 2161.15625 2572.28808594 2088.95996094 c 0
 2557.86328125 1985.19628906 2503.44238281 1887.87304688 2424.83203125 1818.62402344 c 0
 2377.30273438 1776.75390625 2319.47363281 1744.91796875 2256.85839844 1735.35742188 c 0
 2225.55078125 1730.578125 2193.21484375 1731.56054688 2162.62402344 1739.76074219 c 0
 2132.03320312 1747.9609375 2103.22949219 1763.52832031 2080.76757812 1785.85644531 c 0
 2046.75488281 1819.66699219 2028.8203125 1867.453125 2025.1796875 1915.27441406 c 0
 2021.54003906 1963.09570312 2031.15722656 2011.28710938 2048 2056.19238281 c 0
 2084.71289062 2154.07226562 2153.24804688 2238.61523438 2236.41601562 2301.95214844 c 0
 2306.8046875 2355.55664062 2388.69238281 2393.1171875 2473.984375 2416.63964844 c 0
 2662.61035156 2468.66113281 2863.78027344 2455.17773438 3055.61621094 2416.63964844 c 0
 3233.71875 2380.86132812 3407.75976562 2323.85449219 3588.09570312 2301.95214844 c 0
 3708.88574219 2287.28222656 3832.21972656 2289.01660156 3951.21972656 2314.40332031 c 0
 4070.21972656 2339.79003906 4184.29003906 2388.4609375 4284.41601562 2457.59960938 c 1
  Spiro
    4284.42 2457.6 v
    4308.99 2457.6 v
    3612.67 2277.38 o
    2949.12 2416.64 o
    2523.14 2408.45 o
    2228.22 2269.18 o
    2080.77 2080.77 o
    2113.54 1785.86 c
    2383.87 1843.2 o
    2555.9 2113.54 o
    2375.68 2433.02 o
    1982.46 2301.95 o
    1794.05 1851.39 v
    1785.86 1859.58 v
    1949.7 2277.38 o
    2375.68 2441.22 o
    2572.29 2088.96 o
    2424.83 1818.62 o
    2080.77 1785.86 c
    2048 2056.19 o
    2236.42 2301.95 o
    2473.98 2416.64 o
    3055.62 2416.64 o
    3588.1 2301.95 o
    0 0 z
  EndSpiro
3301.37597656 2105.34375 m 1
 3087.50390625 1963.41113281 2886.90234375 1801.45410156 2703.36035156 1622.015625 c 0
 2502.05078125 1425.20800781 2324.53222656 1205.20703125 2162.68847656 974.84765625 c 0
 1992.34960938 732.397460938 1836 474.577148438 1613.82421875 278.528320312 c 0
 1447.34960938 131.629882812 1237.65234375 25.216796875 1015.80761719 16.3837890625 c 0
 878.438476562 10.9140625 739.426757812 42.8193359375 619.484375 110.006835938 c 0
 499.541992188 177.194335938 398.998046875 279.279296875 335.872070312 401.408203125 c 0
 292.318359375 485.669921875 266.619140625 579.353515625 263.1484375 674.141601562 c 0
 259.677734375 768.930664062 278.75390625 864.611328125 319.48828125 950.272460938 c 0
 395.325195312 1109.75097656 547.16796875 1228.02050781 717.502929688 1274.61425781 c 0
 887.837890625 1321.20703125 1072.43359375 1301.06542969 1236.9921875 1236.9921875 c 0
 1433.59375 1160.44140625 1605.14746094 1023.12109375 1728.51171875 851.967773438 c 1
 1720.3203125 843.776367188 l 1
 1567.11425781 1054.33886719 1336.91503906 1211.64257812 1081.34375 1261.56835938 c 0
 934.513671875 1290.25097656 778.533203125 1281.64355469 640.692382812 1223.48828125 c 0
 502.852539062 1165.33203125 386.247070312 1055.16992188 327.6796875 917.50390625 c 0
 286.474609375 820.646484375 273.88671875 712.198242188 289.262695312 608.069335938 c 0
 304.638671875 503.939453125 347.227539062 404.276367188 409.599609375 319.48828125 c 0
 522.455078125 166.073242188 703.012695312 63.4609375 892.927734375 49.15234375 c 0
 1017.23339844 39.7861328125 1142.87988281 67.009765625 1256.3828125 118.55078125 c 0
 1369.88574219 170.092773438 1471.79589844 244.532226562 1564.671875 327.6796875 c 0
 1785.6328125 525.49609375 1964.30371094 765.263671875 2146.30371094 999.423828125 c 0
 2317.6484375 1219.87402344 2489.46386719 1441.05175781 2686.97558594 1638.40039062 c 0
 2866.36035156 1817.63574219 3066.75878906 1976.19824219 3284.9921875 2105.34375 c 1
 3301.37597656 2105.34375 l 1
  Spiro
    3301.38 2105.34 v
    2703.36 1622.02 o
    2162.69 974.848 o
    1613.82 278.528 o
    1015.81 16.384 o
    335.872 401.408 o
    319.488 950.272 o
    1236.99 1236.99 o
    1728.51 851.968 v
    1720.32 843.776 v
    1081.34 1261.57 o
    327.68 917.504 o
    409.6 319.488 o
    892.928 49.152 o
    1564.67 327.68 o
    2146.3 999.424 o
    2686.98 1638.4 o
    3284.99 2105.34 v
    0 0 z
  EndSpiro
EndSplineSet
Validated: 37
EndChar

StartChar: F
Encoding: 6 70 5
Width: 4628
VWidth: 0
InSpiro: 1
Flags: HW
LayerCount: 3
Fore
SplineSet
2441.21582031 999.423828125 m 0
 2434.51757812 980.692382812 2429.04101562 961.5234375 2424.83203125 942.080078125 c 2
 2392.06445312 942.080078125 l 1
 2473.984375 1097.72753906 l 1
 2490.36816406 1097.72753906 l 2
 2470.12402344 1067.08789062 2453.58105469 1034.00390625 2441.21582031 999.423828125 c 0
  Spiro
    2441.22 999.424 o
    2424.83 942.08 v
    2392.06 942.08 v
    2473.98 1097.73 v
    2490.37 1097.73 v
    0 0 z
  EndSpiro
4284.41601562 2457.59960938 m 1
 4308.9921875 2457.59960938 l 1
 4211.78710938 2382.23046875 4098.51953125 2327.86425781 3979.14550781 2298.21289062 c 0
 3859.77148438 2268.56152344 3734.9453125 2264.00976562 3612.671875 2277.37597656 c 0
 3387.84472656 2301.953125 3172.96777344 2384.33398438 2949.12011719 2416.63964844 c 0
 2807.80566406 2437.03515625 2662.62011719 2438.94140625 2523.13574219 2408.44824219 c 0
 2415.84863281 2384.99316406 2312.00585938 2340.18652344 2228.22363281 2269.18359375 c 0
 2166.95410156 2217.25976562 2115.73730469 2153.06835938 2080.76757812 2080.76757812 c 0
 2057.2734375 2032.19140625 2041.20507812 1978.84863281 2043.25097656 1924.92675781 c 0
 2044.27441406 1897.96582031 2050.0234375 1871.02441406 2061.65820312 1846.68164062 c 0
 2073.29296875 1822.33886719 2090.97753906 1800.65625 2113.53613281 1785.85644531 c 0
 2134.16113281 1772.32519531 2158.44433594 1764.79492188 2183.02050781 1762.67773438 c 0
 2207.59667969 1760.56054688 2232.47851562 1763.72851562 2256.19335938 1770.515625 c 0
 2303.62304688 1784.09082031 2346.17871094 1811.37109375 2383.87207031 1843.20019531 c 0
 2425.42285156 1878.28710938 2462.03320312 1919.2578125 2492.18945312 1964.515625 c 0
 2522.34570312 2009.77246094 2545.703125 2060.1171875 2555.90429688 2113.53613281 c 0
 2568.45703125 2179.27539062 2559.50976562 2249.61132812 2526.99414062 2308.109375 c 0
 2494.47753906 2366.60742188 2439.11621094 2411.68847656 2375.6796875 2433.02441406 c 0
 2306.39550781 2456.32617188 2229.24414062 2451.62011719 2160.72070312 2426.16699219 c 0
 2092.19726562 2400.71386719 2031.92578125 2355.7734375 1982.46386719 2301.95214844 c 0
 1870.40136719 2180.01171875 1808.81542969 2016.34570312 1794.04785156 1851.39160156 c 1
 1785.85644531 1859.58398438 l 1
 1804.203125 2009.80761719 1856.90234375 2157.82226562 1949.69628906 2277.37597656 c 0
 1999.6171875 2341.69335938 2062.71875 2397.26464844 2137.46386719 2429.54296875 c 0
 2212.20996094 2461.82128906 2299.00292969 2468.59179688 2375.6796875 2441.21582031 c 0
 2444.32714844 2416.70703125 2502.67773438 2365.37890625 2537.09570312 2301.12597656 c 0
 2571.51367188 2236.87304688 2582.32421875 2161.15625 2572.28808594 2088.95996094 c 0
 2557.86328125 1985.19628906 2503.44238281 1887.87304688 2424.83203125 1818.62402344 c 0
 2377.30273438 1776.75390625 2319.47363281 1744.91796875 2256.85839844 1735.35742188 c 0
 2225.55078125 1730.578125 2193.21484375 1731.56054688 2162.62402344 1739.76074219 c 0
 2132.03320312 1747.9609375 2103.22949219 1763.52832031 2080.76757812 1785.85644531 c 0
 2046.75488281 1819.66699219 2028.8203125 1867.453125 2025.1796875 1915.27441406 c 0
 2021.54003906 1963.09570312 2031.15722656 2011.28710938 2048 2056.19238281 c 0
 2084.71289062 2154.07226562 2153.24804688 2238.61523438 2236.41601562 2301.95214844 c 0
 2306.8046875 2355.55664062 2388.69238281 2393.1171875 2473.984375 2416.63964844 c 0
 2662.61035156 2468.66113281 2863.78027344 2455.17773438 3055.61621094 2416.63964844 c 0
 3233.71875 2380.86132812 3407.75976562 2323.85449219 3588.09570312 2301.95214844 c 0
 3708.88574219 2287.28222656 3832.21972656 2289.01660156 3951.21972656 2314.40332031 c 0
 4070.21972656 2339.79003906 4184.29003906 2388.4609375 4284.41601562 2457.59960938 c 1
  Spiro
    4284.42 2457.6 v
    4308.99 2457.6 v
    3612.67 2277.38 o
    2949.12 2416.64 o
    2523.14 2408.45 o
    2228.22 2269.18 o
    2080.77 2080.77 o
    2113.54 1785.86 c
    2383.87 1843.2 o
    2555.9 2113.54 o
    2375.68 2433.02 o
    1982.46 2301.95 o
    1794.05 1851.39 v
    1785.86 1859.58 v
    1949.7 2277.38 o
    2375.68 2441.22 o
    2572.29 2088.96 o
    2424.83 1818.62 o
    2080.77 1785.86 c
    2048 2056.19 o
    2236.42 2301.95 o
    2473.98 2416.64 o
    3055.62 2416.64 o
    3588.1 2301.95 o
    0 0 z
  EndSpiro
3301.37597656 2105.34375 m 1
 3087.60058594 1963.27539062 2886.98730469 1801.36132812 2703.36035156 1622.015625 c 0
 2501.94921875 1425.30175781 2324.33105469 1205.35644531 2162.68847656 974.84765625 c 0
 1992.55273438 732.23046875 1836.37402344 474.18359375 1613.82421875 278.528320312 c 0
 1447.13964844 131.986328125 1237.54003906 26.029296875 1015.80761719 16.3837890625 c 0
 878.267578125 10.400390625 738.83984375 41.5732421875 618.635742188 108.684570312 c 0
 498.430664062 175.796875 398.0546875 278.58203125 335.872070312 401.408203125 c 0
 250.3671875 570.30078125 241.223632812 777.904296875 319.48828125 950.272460938 c 0
 391.859375 1109.66210938 537.057617188 1232.64453125 704.41015625 1283.984375 c 0
 871.762695312 1335.32324219 1054.30078125 1316.20019531 1220.60839844 1261.56835938 c 0
 1456.75683594 1183.99316406 1672.22753906 1043.08007812 1916.92773438 999.423828125 c 0
 2109.46679688 965.073242188 2315.0859375 996.081054688 2482.17578125 1097.72753906 c 1
 2482.17578125 1081.34375 l 1
 2332.93261719 993.458984375 2154.85644531 958.166992188 1982.46386719 974.84765625 c 0
 1824.61425781 990.122070312 1673.96582031 1046.86230469 1528.1875 1109.30078125 c 0
 1382.41015625 1171.74023438 1236.92382812 1239.0234375 1081.34375 1269.75976562 c 0
 933.290039062 1299.00878906 775.534179688 1292.53222656 637.200195312 1232.20703125 c 0
 498.865234375 1171.88183594 384.340820312 1057.37890625 327.6796875 917.50390625 c 0
 288.249023438 820.163085938 276.299804688 712.163085938 291.33984375 608.221679688 c 0
 306.37890625 504.279296875 347.912109375 404.486328125 409.599609375 319.48828125 c 0
 521.5546875 165.228515625 702.815429688 62.8271484375 892.927734375 49.15234375 c 0
 1017.2109375 40.2119140625 1142.70019531 67.64453125 1256.17871094 119.111328125 c 0
 1369.65820312 170.578125 1471.68359375 244.737304688 1564.671875 327.6796875 c 0
 1786.00488281 525.1015625 1964.49414062 765.09765625 2146.30371094 999.423828125 c 0
 2317.46289062 1220.0234375 2489.36914062 1441.14160156 2686.97558594 1638.40039062 c 0
 2866.43945312 1817.54785156 3066.84375 1976.06738281 3284.9921875 2105.34375 c 1
 3301.37597656 2105.34375 l 1
  Spiro
    3301.38 2105.34 v
    2703.36 1622.02 o
    2162.69 974.848 o
    1613.82 278.528 o
    1015.81 16.384 o
    335.872 401.408 o
    319.488 950.272 o
    1220.61 1261.57 o
    1916.93 999.424 o
    2482.18 1097.73 v
    2482.18 1081.34 v
    1982.46 974.848 o
    1081.34 1269.76 o
    327.68 917.504 o
    409.6 319.488 o
    892.928 49.152 o
    1564.67 327.68 o
    2146.3 999.424 o
    2686.98 1638.4 o
    3284.99 2105.34 v
    0 0 z
  EndSpiro
EndSplineSet
Validated: 37
EndChar

StartChar: K
Encoding: 11 75 6
Width: 4096
VWidth: 0
InSpiro: 1
Flags: HW
LayerCount: 3
Fore
SplineSet
2883.58398438 2113.53613281 m 1
 2528.98730469 1691.54394531 2133.29882812 1304.09863281 1703.93554688 958.463867188 c 0
 1249.42480469 592.584960938 757.19140625 273.595703125 237.568359375 8.1923828125 c 1
 237.568359375 24.576171875 l 1
 750.6875 289.221679688 1237.23925781 605.342773438 1687.55175781 966.65625 c 0
 2115.95117188 1310.38671875 2511.54101562 1694.98828125 2867.20019531 2113.53613281 c 1
 2883.58398438 2113.53613281 l 1
  Spiro
    2883.58 2113.54 v
    1703.94 958.464 o
    237.568 8.192 v
    237.568 24.576 v
    1687.55 966.656 o
    2867.2 2113.54 v
    0 0 z
  EndSpiro
3833.85644531 2457.59960938 m 2
 3833.85644531 2449.40820312 l 2
 3809.29296875 2450.38378906 3784.69140625 2450.38574219 3760.12792969 2449.40820312 c 0
 3588.81933594 2442.59179688 3417.55078125 2386.1015625 3284.9921875 2277.37597656 c 0
 3170.21289062 2183.234375 3089.6875 2053.30078125 3031.04003906 1916.92773438 c 0
 2984.1171875 1807.81835938 2948.49023438 1694.12792969 2901.65039062 1584.98339844 c 0
 2854.81054688 1475.83886719 2795.00097656 1370.65917969 2711.55175781 1286.14355469 c 0
 2653.0546875 1226.89941406 2584.16503906 1176.25683594 2505.89746094 1147.8671875 c 0
 2466.76367188 1133.67285156 2424.78417969 1125.44726562 2383.38769531 1129.83984375 c 0
 2362.69042969 1132.03515625 2342.2265625 1137.49316406 2323.73535156 1147.04980469 c 0
 2305.24414062 1156.60546875 2288.72363281 1170.390625 2277.37597656 1187.83984375 c 0
 2269.56347656 1199.85253906 2264.27246094 1213.58203125 2262.64355469 1227.81835938 c 0
 2261.01464844 1242.05566406 2263.12890625 1256.77246094 2269.18359375 1269.75976562 c 0
 2274.94335938 1282.11523438 2284.27148438 1292.80859375 2295.83105469 1300.03417969 c 0
 2307.38964844 1307.25976562 2321.08984375 1310.95214844 2334.71972656 1310.71972656 c 0
 2355.23632812 1310.37109375 2375.02246094 1301.13574219 2390.24316406 1287.375 c 0
 2405.46386719 1273.61425781 2416.46972656 1255.72949219 2424.83203125 1236.9921875 c 0
 2452.41210938 1175.19433594 2461.7890625 1106.94921875 2473.984375 1040.38378906 c 0
 2494.11035156 930.524414062 2501.05566406 816.635742188 2475.8359375 707.833007812 c 0
 2450.61621094 599.030273438 2391.97167969 501.743164062 2342.91210938 401.408203125 c 0
 2320.23632812 355.032226562 2300.67480469 306.283203125 2294.90136719 254.984375 c 0
 2289.12695312 203.685546875 2298.63867188 149.936523438 2326.52832031 106.49609375 c 0
 2344.29296875 78.826171875 2368.97265625 55.7451171875 2397.39453125 39.2119140625 c 0
 2425.81738281 22.677734375 2457.78320312 12.59765625 2490.36816406 8.1923828125 c 0
 2552.80859375 -0.2490234375 2616.76757812 11.541015625 2675.7265625 33.7646484375 c 0
 2734.68652344 55.9892578125 2789.38183594 88.5634765625 2839.87988281 126.248046875 c 0
 2940.875 201.6171875 3026.41992188 296.724609375 3096.57617188 401.408203125 c 1
 3096.57617188 401.408203125 l 1
 3029.24609375 299.025390625 2947.26367188 205.669921875 2850.64550781 130.30078125 c 0
 2802.33691406 92.6162109375 2750.09277344 59.572265625 2693.68554688 35.654296875 c 0
 2637.27832031 11.736328125 2576.13671875 -3.0478515625 2514.94433594 0 c 0
 2478.24414062 1.828125 2441.67089844 10.3037109375 2408.82519531 26.779296875 c 0
 2375.98046875 43.25390625 2347.13867188 67.8828125 2326.52832031 98.3037109375 c 0
 2296.81152344 142.165039062 2285.49511719 196.983398438 2289.83203125 249.78515625 c 0
 2294.16992188 302.586914062 2312.6875 353.2265625 2334.71972656 401.408203125 c 0
 2384.55859375 510.399414062 2446.27832031 615.704101562 2470.5390625 733.068359375 c 0
 2494.79980469 850.43359375 2483.27441406 972.471679688 2457.59960938 1089.53613281 c 0
 2446.65722656 1139.43164062 2437.38867188 1190.31445312 2416.63964844 1236.9921875 c 0
 2409.09277344 1253.97167969 2399.22363281 1270.25292969 2385.36425781 1282.63085938 c 0
 2371.50488281 1295.0078125 2353.29492188 1303.02050781 2334.71972656 1302.52832031 c 0
 2322.26855469 1302.19824219 2309.93554688 1298.07519531 2299.82910156 1290.79394531 c 0
 2289.72167969 1283.51367188 2281.90722656 1273.17089844 2277.37597656 1261.56835938 c 0
 2271.36621094 1246.17773438 2271.16308594 1228.765625 2275.85253906 1212.92285156 c 0
 2280.54101562 1197.08007812 2289.94921875 1182.80957031 2301.95214844 1171.45605469 c 0
 2316.5 1157.6953125 2334.74121094 1148.14257812 2353.95703125 1142.50488281 c 0
 2373.171875 1136.8671875 2393.39648438 1135.04296875 2413.40039062 1135.97558594 c 0
 2453.40722656 1137.84082031 2492.34277344 1150.31835938 2528.60644531 1167.31835938 c 0
 2601.13378906 1201.31738281 2664.86914062 1252.36816406 2719.74414062 1310.71972656 c 0
 2797.6796875 1393.59277344 2854.58886719 1494.21777344 2899.21972656 1598.86035156 c 0
 2943.84960938 1703.50292969 2978.04199219 1812.36035156 3022.84765625 1916.92773438 c 0
 3082.85253906 2056.96386719 3166.5078125 2189.796875 3284.9921875 2285.56835938 c 0
 3418.26367188 2393.29101562 3588.90527344 2450.65332031 3760.12792969 2457.59960938 c 0
 3784.69042969 2458.59667969 3809.29296875 2458.59570312 3833.85644531 2457.59960938 c 2
  Spiro
    3833.86 2457.6 v
    3833.86 2449.41 v
    3760.13 2449.41 o
    3284.99 2277.38 o
    3031.04 1916.93 o
    2711.55 1286.14 o
    2277.38 1187.84 o
    2269.18 1269.76 o
    2334.72 1310.72 o
    2424.83 1236.99 o
    2473.98 1040.38 o
    2342.91 401.408 o
    2326.53 106.496 o
    2490.37 8.192 o
    3096.58 401.408 v
    3096.58 401.408 v
    2514.94 0 o
    2326.53 98.304 o
    2334.72 401.408 o
    2457.6 1089.54 o
    2416.64 1236.99 o
    2334.72 1302.53 o
    2277.38 1261.57 o
    2301.95 1171.46 o
    2719.74 1310.72 o
    3022.85 1916.93 o
    3284.99 2285.57 o
    3760.13 2457.6 o
    0 0 z
  EndSpiro
2883.58398438 2113.53613281 m 1
 2416.63964844 1327.10351562 l 2
 2190.78222656 946.711914062 1954.98144531 560.16796875 1613.82421875 278.528320312 c 0
 1443.06445312 137.55859375 1236.91894531 28.2724609375 1015.80761719 16.3837890625 c 0
 878.23046875 8.9873046875 738.44140625 40.181640625 618.407226562 107.813476562 c 0
 498.373046875 175.446289062 398.473632812 278.674804688 335.872070312 401.408203125 c 0
 292.805664062 485.842773438 267.358398438 579.459960938 263.838867188 674.177734375 c 0
 260.318359375 768.895507812 279.075195312 864.536132812 319.48828125 950.272460938 c 0
 394.846679688 1110.14746094 546.650390625 1228.94335938 717.154296875 1275.50097656 c 0
 887.657226562 1322.05859375 1072.40917969 1301.42480469 1236.9921875 1236.9921875 c 0
 1433.4140625 1160.09375 1604.80371094 1022.82226562 1728.51171875 851.967773438 c 1
 1720.3203125 843.776367188 l 1
 1566.7578125 1054.01074219 1336.78710938 1211.28027344 1081.34375 1261.56835938 c 0
 934.4765625 1290.48046875 778.370117188 1282.11816406 640.442382812 1223.96582031 c 0
 502.514648438 1165.81347656 385.956054688 1055.37988281 327.6796875 917.50390625 c 0
 286.724609375 820.606445312 274.401367188 712.21875 289.807617188 608.15625 c 0
 305.21484375 504.09375 347.5703125 404.451171875 409.599609375 319.48828125 c 0
 522.002929688 165.526367188 702.733398438 61.9775390625 892.927734375 49.15234375 c 0
 1017.02832031 40.783203125 1141.99316406 69.6220703125 1254.99511719 121.598632812 c 0
 1367.99707031 173.575195312 1469.93554688 247.08203125 1564.671875 327.6796875 c 0
 1901.65917969 614.374023438 2169.05273438 974.454101562 2400.25585938 1351.6796875 c 2
 2867.20019531 2113.53613281 l 1
 2883.58398438 2113.53613281 l 1
  Spiro
    2883.58 2113.54 v
    2416.64 1327.1 ]
    1613.82 278.528 o
    1015.81 16.384 o
    335.872 401.408 o
    319.488 950.272 o
    1236.99 1236.99 o
    1728.51 851.968 v
    1720.32 843.776 v
    1081.34 1261.57 o
    327.68 917.504 o
    409.6 319.488 o
    892.928 49.152 o
    1564.67 327.68 o
    2400.26 1351.68 [
    2867.2 2113.54 v
    0 0 z
  EndSpiro
EndSplineSet
Validated: 37
EndChar

StartChar: H
Encoding: 8 72 7
Width: 4636
VWidth: 0
InSpiro: 1
Flags: HW
LayerCount: 3
Fore
SplineSet
2793.47167969 851.967773438 m 1
 2785.28027344 835.583984375 l 1
 2747.984375 854.255859375 2704.671875 860.759765625 2663.57617188 853.65625 c 0
 2622.47167969 846.559570312 2583.59960938 825.81640625 2555.90429688 794.624023438 c 0
 2528.24023438 763.463867188 2512.38378906 721.528320312 2514.94433594 679.935546875 c 0
 2516.6484375 652.223632812 2526.3515625 625.095703125 2542.30371094 602.368164062 c 0
 2558.25585938 579.639648438 2580.25585938 561.3515625 2605.05566406 548.864257812 c 0
 2634.29589844 534.135742188 2667.25585938 527.391601562 2699.9921875 527.51953125 c 0
 2732.72753906 527.6484375 2765.27246094 534.51171875 2795.93554688 545.967773438 c 0
 2857.28027344 568.864257812 2910.91992188 609.16015625 2957.31152344 655.360351562 c 0
 3001.54394531 699.408203125 3039.80761719 749.3359375 3072 802.81640625 c 1
 3088.38378906 802.81640625 l 1
 3056.30371094 749.263671875 3017.94433594 699.391601562 2973.69628906 655.360351562 c 0
 2926.21582031 608.112304688 2871.48828125 567.055664062 2809.38378906 541.967773438 c 0
 2747.27246094 516.879882812 2675.94433594 508.896484375 2613.24804688 532.48046875 c 0
 2582.38378906 544.087890625 2554.20800781 563.391601562 2533.60839844 589.135742188 c 0
 2513 614.879882812 2500.3515625 647.0078125 2498.55957031 679.935546875 c 0
 2497.0078125 708.536132812 2503.55957031 737.431640625 2516.6640625 762.904296875 c 0
 2529.76757812 788.368164062 2549.24023438 810.391601562 2572.28808594 827.391601562 c 0
 2603.46386719 850.391601562 2641.08007812 864.303710938 2679.60839844 868.375976562 c 0
 2718.13574219 872.456054688 2757.63964844 866.704101562 2793.47167969 851.967773438 c 1
  Spiro
    2793.47 851.968 v
    2785.28 835.584 v
    2555.9 794.624 o
    2514.94 679.936 o
    2605.06 548.864 o
    2957.31 655.36 o
    3072 802.816 v
    3088.38 802.816 v
    2973.7 655.36 o
    2613.25 532.48 o
    2498.56 679.936 o
    2572.29 827.392 o
    0 0 z
  EndSpiro
4300.79980469 2457.59960938 m 1
 3982.6640625 2314.671875 3697.28027344 2101.59179688 3463.71191406 1842.58398438 c 0
 3230.13574219 1583.58398438 3052.74414062 1279.84765625 2883.58398438 974.84765625 c 2
 2342.91210938 0 l 1
 2326.52832031 0 l 1
 2859.0078125 974.84765625 l 2
 3026.36816406 1281.24804688 3202.24023438 1586.45605469 3435.86425781 1845.89648438 c 0
 3669.49609375 2105.3359375 3956.37597656 2317.63964844 4276.22363281 2457.59960938 c 1
 4300.79980469 2457.59960938 l 1
  Spiro
    4300.8 2457.6 v
    2883.58 974.848 [
    2342.91 0 v
    2326.53 0 v
    2859.01 974.848 ]
    4276.22 2457.6 v
    0 0 z
  EndSpiro
2883.58398438 2113.53613281 m 1
 2528.98730469 1691.54394531 2133.29882812 1304.09863281 1703.93554688 958.463867188 c 0
 1249.42480469 592.584960938 757.19140625 273.595703125 237.568359375 8.1923828125 c 1
 237.568359375 24.576171875 l 1
 750.6875 289.221679688 1237.23925781 605.342773438 1687.55175781 966.65625 c 0
 2115.95117188 1310.38671875 2511.54101562 1694.98828125 2867.20019531 2113.53613281 c 1
 2883.58398438 2113.53613281 l 1
  Spiro
    2883.58 2113.54 v
    1703.94 958.464 o
    237.568 8.192 v
    237.568 24.576 v
    1687.55 966.656 o
    2867.2 2113.54 v
    0 0 z
  EndSpiro
2883.58398438 2113.53613281 m 1
 2416.63964844 1327.10351562 l 2
 2190.78222656 946.711914062 1954.98144531 560.16796875 1613.82421875 278.528320312 c 0
 1443.06445312 137.55859375 1236.91894531 28.2724609375 1015.80761719 16.3837890625 c 0
 878.23046875 8.9873046875 738.44140625 40.181640625 618.407226562 107.813476562 c 0
 498.373046875 175.446289062 398.473632812 278.674804688 335.872070312 401.408203125 c 0
 292.805664062 485.842773438 267.358398438 579.459960938 263.838867188 674.177734375 c 0
 260.318359375 768.895507812 279.075195312 864.536132812 319.48828125 950.272460938 c 0
 394.846679688 1110.14746094 546.650390625 1228.94335938 717.154296875 1275.50097656 c 0
 887.657226562 1322.05859375 1072.40917969 1301.42480469 1236.9921875 1236.9921875 c 0
 1433.4140625 1160.09375 1604.80371094 1022.82226562 1728.51171875 851.967773438 c 1
 1720.3203125 843.776367188 l 1
 1566.7578125 1054.01074219 1336.78710938 1211.28027344 1081.34375 1261.56835938 c 0
 934.4765625 1290.48046875 778.370117188 1282.11816406 640.442382812 1223.96582031 c 0
 502.514648438 1165.81347656 385.956054688 1055.37988281 327.6796875 917.50390625 c 0
 286.724609375 820.606445312 274.401367188 712.21875 289.807617188 608.15625 c 0
 305.21484375 504.09375 347.5703125 404.451171875 409.599609375 319.48828125 c 0
 522.002929688 165.526367188 702.733398438 61.9775390625 892.927734375 49.15234375 c 0
 1017.02832031 40.783203125 1141.99316406 69.6220703125 1254.99511719 121.598632812 c 0
 1367.99707031 173.575195312 1469.93554688 247.08203125 1564.671875 327.6796875 c 0
 1901.65917969 614.374023438 2169.05273438 974.454101562 2400.25585938 1351.6796875 c 2
 2867.20019531 2113.53613281 l 1
 2883.58398438 2113.53613281 l 1
  Spiro
    2883.58 2113.54 v
    2416.64 1327.1 ]
    1613.82 278.528 o
    1015.81 16.384 o
    335.872 401.408 o
    319.488 950.272 o
    1236.99 1236.99 o
    1728.51 851.968 v
    1720.32 843.776 v
    1081.34 1261.57 o
    327.68 917.504 o
    409.6 319.488 o
    892.928 49.152 o
    1564.67 327.68 o
    2400.26 1351.68 [
    2867.2 2113.54 v
    0 0 z
  EndSpiro
EndSplineSet
Validated: 37
EndChar

StartChar: P
Encoding: 16 80 8
Width: 4628
VWidth: 0
InSpiro: 1
Flags: HW
LayerCount: 3
Fore
SplineSet
3301.37597656 2105.34375 m 1
 3089.5078125 1960.60253906 2888.64648438 1799.51855469 2703.36035156 1622.015625 c 0
 2499.95214844 1427.15332031 2320.37011719 1208.26269531 2162.68847656 974.84765625 c 0
 1996.55761719 728.92578125 1843.54882812 466.420898438 1613.82421875 278.528320312 c 0
 1443.06347656 138.862304688 1235.08007812 40.5810546875 1015.80761719 16.3837890625 c 0
 885.16796875 1.9677734375 748.509765625 16.6630859375 632.201171875 77.873046875 c 0
 515.891601562 139.083984375 426.303710938 249.6328125 393.215820312 376.83203125 c 0
 372.435546875 456.717773438 372.336914062 541.028320312 385.024414062 622.591796875 c 0
 409.987304688 783.081054688 478.34375 933.625976562 554.349609375 1077.1640625 c 0
 630.354492188 1220.70117188 716.682617188 1358.72265625 811.0078125 1490.94433594 c 0
 971.923828125 1716.51074219 1159.64355469 1924.76171875 1380.40136719 2092.21386719 c 0
 1601.15820312 2259.66601562 1856.890625 2385.81054688 2129.91992188 2433.02441406 c 0
 2315.10253906 2465.046875 2507.92382812 2460.59570312 2688.32617188 2407.9375 c 0
 2868.72949219 2355.27929688 3039.12207031 2251.92089844 3145.72753906 2097.15234375 c 0
 3200.78027344 2017.22753906 3237.39257812 1923.71386719 3244.734375 1826.94140625 c 0
 3252.07617188 1730.16894531 3228.98632812 1631.17089844 3178.49609375 1548.28808594 c 0
 3132.86230469 1473.37890625 3066.07128906 1412.44628906 2990.26660156 1368.31542969 c 0
 2914.46289062 1324.18554688 2830.15917969 1295.9921875 2744.3203125 1277.95214844 c 0
 2583.22265625 1244.09472656 2416.29785156 1242.40136719 2252.79980469 1261.56835938 c 1
 2260.9921875 1269.75976562 l 1
 2424.890625 1252.97753906 2592.02148438 1257.08984375 2752.51171875 1294.3359375 c 0
 2836.54492188 1313.83789062 2918.84765625 1343.53125 2992.0546875 1389.16601562 c 0
 3065.26171875 1434.80175781 3128.76269531 1497.25878906 3170.30371094 1572.86425781 c 0
 3210.21875 1645.50976562 3229.078125 1729.3828125 3225.15136719 1812.17871094 c 0
 3221.22558594 1894.97460938 3195.17089844 1976.10449219 3153.91992188 2048 c 0
 3057.95410156 2215.25585938 2885.953125 2329.78710938 2702.07226562 2387.85546875 c 0
 2518.19238281 2445.92480469 2319.6640625 2451.0078125 2129.91992188 2416.63964844 c 0
 1858.78710938 2367.53125 1606.234375 2238.61425781 1387.62109375 2070.88476562 c 0
 1169.00878906 1903.15429688 981.434570312 1697.28125 819.200195312 1474.55957031 c 0
 717.188476562 1334.51464844 623.866210938 1187.84472656 545.108398438 1033.51855469 c 0
 466.349609375 879.193359375 398.825195312 713.841796875 393.215820312 540.671875 c 0
 390.483398438 456.302734375 404.651367188 370.430664062 442.368164062 294.912109375 c 0
 482.752929688 214.049804688 550.178710938 147.418945312 630.5703125 106.106445312 c 0
 710.962890625 64.79296875 802.549804688 47.970703125 892.927734375 49.15234375 c 0
 1016.296875 50.763671875 1137.86914062 83.86328125 1250.80664062 133.537109375 c 0
 1363.74511719 183.2109375 1468.71972656 250.119140625 1564.671875 327.6796875 c 0
 1795.69628906 514.422851562 1969.59570312 760.63671875 2146.30371094 999.423828125 c 0
 2312.47265625 1223.96875 2486.82226562 1443.5390625 2686.97558594 1638.40039062 c 0
 2868.55859375 1815.18066406 3069.14453125 1972.55175781 3284.9921875 2105.34375 c 1
 3301.37597656 2105.34375 l 1
  Spiro
    3301.38 2105.34 v
    2703.36 1622.02 o
    2162.69 974.848 o
    1613.82 278.528 o
    1015.81 16.384 o
    393.216 376.832 o
    385.024 622.592 o
    811.008 1490.94 o
    2129.92 2433.02 o
    3145.73 2097.15 o
    3178.5 1548.29 o
    2744.32 1277.95 o
    2252.8 1261.57 v
    2260.99 1269.76 v
    2752.51 1294.34 o
    3170.3 1572.86 o
    3153.92 2048 o
    2129.92 2416.64 o
    819.2 1474.56 o
    393.216 540.672 o
    442.368 294.912 o
    892.928 49.152 o
    1564.67 327.68 o
    2146.3 999.424 o
    2686.98 1638.4 o
    3284.99 2105.34 v
    0 0 z
  EndSpiro
EndSplineSet
Validated: 37
EndChar

StartChar: B
Encoding: 2 66 9
Width: 4628
VWidth: 0
InSpiro: 1
Flags: HW
LayerCount: 3
Fore
SplineSet
3301.37597656 2105.34375 m 1
 3089.50683594 1960.60253906 2888.64648438 1799.51953125 2703.36035156 1622.015625 c 0
 2499.953125 1427.15332031 2320.37011719 1208.26269531 2162.68847656 974.84765625 c 0
 1996.55664062 728.926757812 1843.546875 466.422851562 1613.82421875 278.528320312 c 0
 1443.06445312 138.860351562 1235.08105469 40.578125 1015.80761719 16.3837890625 c 0
 885.168945312 1.9697265625 748.512695312 16.66796875 632.204101562 77.8779296875 c 0
 515.895507812 139.087890625 426.306640625 249.633789062 393.215820312 376.83203125 c 0
 372.43359375 456.717773438 372.333984375 541.028320312 385.024414062 622.591796875 c 0
 409.993164062 783.078125 478.37109375 933.61328125 554.387695312 1077.14355469 c 0
 630.404296875 1220.67285156 716.7265625 1358.69335938 811.0078125 1490.94433594 c 0
 971.873046875 1716.59179688 1159.44042969 1925.03515625 1380.17773438 2092.57519531 c 0
 1600.91503906 2260.11523438 1856.79589844 2386.14648438 2129.91992188 2433.02441406 c 0
 2315.08105469 2464.80371094 2507.8046875 2460.09375 2688.140625 2407.43261719 c 0
 2868.47753906 2354.77050781 3038.93066406 2251.71191406 3145.72753906 2097.15234375 c 0
 3200.91015625 2017.29101562 3237.62597656 1923.76953125 3244.92773438 1826.97363281 c 0
 3252.22851562 1730.17773438 3228.92773438 1631.23046875 3178.49609375 1548.28808594 c 0
 3115.18652344 1444.16503906 3012.24414062 1368.578125 2900.55957031 1319.83203125 c 0
 2788.875 1271.08496094 2668.609375 1244.08007812 2547.71191406 1228.79980469 c 0
 2498.06640625 1222.52539062 2448.02441406 1217.74707031 2398.02246094 1219.69628906 c 0
 2373.02050781 1220.671875 2347.92578125 1223.54492188 2324.01757812 1230.91992188 c 0
 2300.10839844 1238.29492188 2277.02441406 1250.55078125 2260.9921875 1269.75976562 c 0
 2251.53613281 1281.08984375 2244.77148438 1294.88183594 2242.93066406 1309.5234375 c 0
 2241.08984375 1324.16601562 2244.43847656 1339.51953125 2252.79980469 1351.6796875 c 0
 2259.80175781 1361.86230469 2270.15429688 1369.64257812 2281.78710938 1373.81347656 c 0
 2293.41894531 1377.984375 2306.203125 1378.6015625 2318.3359375 1376.25585938 c 0
 2335.56933594 1372.92480469 2351.34277344 1363.81347656 2364.36425781 1352.04394531 c 0
 2377.38671875 1340.27539062 2387.86328125 1325.91113281 2396.65625 1310.71972656 c 0
 2422.88867188 1265.39941406 2437.27539062 1214.20410156 2449.40820312 1163.26367188 c 0
 2481.94628906 1026.6484375 2482.42578125 883.158203125 2456.7890625 745.081054688 c 0
 2431.15234375 607.00390625 2380.421875 473.84375 2310.14355469 352.255859375 c 0
 2211.09765625 180.897460938 2070.82519531 28.2216796875 1892.3515625 -57.34375 c 0
 1800.30664062 -101.473632812 1698.17675781 -126.259765625 1596.17578125 -122.33203125 c 0
 1494.17480469 -118.404296875 1393.125 -84.8173828125 1310.71972656 -24.576171875 c 0
 1226.3203125 37.1240234375 1162.78125 125.630859375 1126.41601562 223.650390625 c 0
 1090.05078125 321.669921875 1079.77734375 428.388671875 1089.53613281 532.48046875 c 0
 1102.87597656 674.772460938 1152.5859375 812.98828125 1228.79980469 933.887695312 c 0
 1346.10253906 1119.96679688 1528.67578125 1263.81542969 1736.70410156 1335.29589844 c 1
 1736.70410156 1327.10351562 l 1
 1530.75878906 1260.53613281 1352.85449219 1113.45019531 1245.18359375 925.696289062 c 0
 1176.3359375 805.639648438 1134.01269531 670.379882812 1122.30371094 532.48046875 c 0
 1114.02246094 434.946289062 1121.52636719 335.362304688 1151.62695312 242.220703125 c 0
 1181.72851562 149.078125 1235.71777344 62.8974609375 1310.71972656 0 c 0
 1393.22363281 -69.1884765625 1499.88476562 -108.056640625 1607.50683594 -111.409179688 c 0
 1715.12988281 -114.760742188 1822.32128906 -84.1826171875 1916.92773438 -32.767578125 c 0
 2076.63671875 54.0263671875 2202.03027344 195.330078125 2293.75976562 352.255859375 c 0
 2364.03125 472.471679688 2415.56445312 603.91796875 2442.89941406 740.456054688 c 0
 2470.23535156 876.994140625 2472.46582031 1019.37597656 2441.21582031 1155.07226562 c 0
 2432.87207031 1191.30371094 2422.59082031 1227.18261719 2408.44824219 1261.56835938 c 0
 2401.26660156 1279.02832031 2392.99414062 1296.11621094 2382.49804688 1311.80957031 c 0
 2372.00195312 1327.50292969 2359.10449219 1341.97167969 2342.91210938 1351.6796875 c 0
 2329.41796875 1359.77050781 2313.33398438 1364.26367188 2297.79003906 1361.83203125 c 0
 2290.01855469 1360.61621094 2282.49609375 1357.67578125 2276.08691406 1353.11425781 c 0
 2269.67871094 1348.55273438 2264.42382812 1342.375 2260.9921875 1335.29589844 c 0
 2256.55566406 1326.14355469 2255.24707031 1315.58203125 2256.88964844 1305.54492188 c 0
 2258.53222656 1295.5078125 2263.015625 1286.0390625 2269.18359375 1277.95214844 c 0
 2281.39453125 1261.94335938 2299.64746094 1251.421875 2318.68164062 1244.859375 c 0
 2337.71582031 1238.29589844 2357.83007812 1235.35644531 2377.91210938 1233.91992188 c 0
 2418.07714844 1231.04785156 2458.44628906 1233.47753906 2498.55957031 1236.9921875 c 0
 2628.31347656 1248.36035156 2757.67089844 1274.76953125 2877.67285156 1325.41210938 c 0
 2997.67480469 1376.0546875 3108.23242188 1458.35546875 3170.30371094 1572.86425781 c 0
 3209.77832031 1645.68652344 3228.53613281 1729.44824219 3224.67382812 1812.19140625 c 0
 3220.81152344 1894.93457031 3194.96875 1976.05371094 3153.91992188 2048 c 0
 3058.31152344 2215.57324219 2886.35351562 2330.50292969 2702.36523438 2388.5546875 c 0
 2518.37792969 2446.60644531 2319.70410156 2451.33203125 2129.91992188 2416.63964844 c 0
 1858.91113281 2367.10058594 1606.54296875 2238.05175781 1387.90332031 2070.43164062 c 0
 1169.26367188 1902.81054688 981.501953125 1697.17675781 819.200195312 1474.55957031 c 0
 717.127929688 1334.5546875 623.797851562 1187.8828125 545.0546875 1033.54589844 c 0
 466.3125 879.208984375 398.819335938 713.844726562 393.215820312 540.671875 c 0
 390.486328125 456.302734375 404.653320312 370.431640625 442.368164062 294.912109375 c 0
 482.750976562 214.047851562 550.176757812 147.416015625 630.569335938 106.102539062 c 0
 710.961914062 64.7900390625 802.548828125 47.9697265625 892.927734375 49.15234375 c 0
 1016.296875 50.765625 1137.86816406 83.8662109375 1250.80566406 133.540039062 c 0
 1363.74414062 183.213867188 1468.71875 250.120117188 1564.671875 327.6796875 c 0
 1795.69824219 514.420898438 1969.59667969 760.635742188 2146.30371094 999.423828125 c 0
 2312.47167969 1223.96972656 2486.82128906 1443.5390625 2686.97558594 1638.40039062 c 0
 2868.55859375 1815.18066406 3069.14453125 1972.55175781 3284.9921875 2105.34375 c 1
 3301.37597656 2105.34375 l 1
  Spiro
    3301.38 2105.34 v
    2703.36 1622.02 o
    2162.69 974.848 o
    1613.82 278.528 o
    1015.81 16.384 o
    393.216 376.832 o
    385.024 622.592 o
    811.008 1490.94 o
    2129.92 2433.02 o
    3145.73 2097.15 o
    3178.5 1548.29 o
    2547.71 1228.8 o
    2260.99 1269.76 o
    2252.8 1351.68 o
    2318.34 1376.26 o
    2396.66 1310.72 o
    2449.41 1163.26 o
    2310.14 352.256 o
    1892.35 -57.344 o
    1310.72 -24.576 o
    1089.54 532.48 o
    1228.8 933.888 o
    1736.7 1335.3 v
    1736.7 1327.1 v
    1245.18 925.696 o
    1122.3 532.48 o
    1310.72 0 o
    1916.93 -32.768 o
    2293.76 352.256 o
    2441.22 1155.07 o
    2408.45 1261.57 o
    2342.91 1351.68 o
    2260.99 1335.3 o
    2269.18 1277.95 o
    2498.56 1236.99 o
    3170.3 1572.86 o
    3153.92 2048 o
    2129.92 2416.64 o
    819.2 1474.56 o
    393.216 540.672 o
    442.368 294.912 o
    892.928 49.152 o
    1564.67 327.68 o
    2146.3 999.424 o
    2686.98 1638.4 o
    3284.99 2105.34 v
    0 0 z
  EndSpiro
EndSplineSet
Validated: 37
EndChar

StartChar: R
Encoding: 18 82 10
Width: 4628
VWidth: 0
InSpiro: 1
Flags: HW
LayerCount: 3
Fore
SplineSet
3301.37597656 2105.34375 m 1
 3089.50683594 1960.60253906 2888.64648438 1799.51953125 2703.36035156 1622.015625 c 0
 2499.953125 1427.15332031 2320.37109375 1208.26171875 2162.68847656 974.84765625 c 0
 1996.55664062 728.926757812 1843.546875 466.422851562 1613.82421875 278.528320312 c 0
 1443.06445312 138.860351562 1235.08105469 40.578125 1015.80761719 16.3837890625 c 0
 885.168945312 1.9697265625 748.512695312 16.66796875 632.204101562 77.87890625 c 0
 515.896484375 139.088867188 426.306640625 249.633789062 393.215820312 376.83203125 c 0
 372.43359375 456.717773438 372.333984375 541.028320312 385.024414062 622.591796875 c 0
 409.993164062 783.078125 478.374023438 933.612304688 554.391601562 1077.140625 c 0
 630.409179688 1220.66992188 716.731445312 1358.69042969 811.0078125 1490.94433594 c 0
 971.8671875 1716.60058594 1159.41796875 1925.06542969 1380.15234375 2092.61621094 c 0
 1600.88671875 2260.16601562 1856.78515625 2386.18554688 2129.91992188 2433.02441406 c 0
 2315.078125 2464.77636719 2507.79003906 2460.03613281 2688.11816406 2407.37304688 c 0
 2868.44628906 2354.70996094 3038.90332031 2251.68359375 3145.72753906 2097.15234375 c 0
 3200.9296875 2017.29785156 3237.66503906 1923.77539062 3244.96972656 1826.97460938 c 0
 3252.2734375 1730.17285156 3228.95507812 1631.21972656 3178.49609375 1548.28808594 c 0
 3115.15917969 1444.19140625 3012.19628906 1368.65234375 2900.51660156 1319.91601562 c 0
 2788.83789062 1271.17871094 2668.59472656 1244.12792969 2547.71191406 1228.79980469 c 0
 2498.06542969 1222.50488281 2448.02148438 1217.7109375 2398.015625 1219.66113281 c 0
 2373.01269531 1220.63671875 2347.91601562 1223.51464844 2324.00878906 1230.89746094 c 0
 2300.10058594 1238.27929688 2277.01953125 1250.54492188 2260.9921875 1269.75976562 c 0
 2251.54003906 1281.09179688 2244.77929688 1294.8828125 2242.93945312 1309.52441406 c 0
 2241.09863281 1324.16601562 2244.44335938 1339.51757812 2252.79980469 1351.6796875 c 0
 2259.79882812 1361.86621094 2270.15039062 1369.65039062 2281.78417969 1373.82226562 c 0
 2293.41699219 1377.99511719 2306.203125 1378.609375 2318.3359375 1376.25585938 c 0
 2335.5625 1372.9140625 2351.3203125 1363.78417969 2364.32910156 1352.0078125 c 0
 2377.33691406 1340.23046875 2387.79980469 1325.86914062 2396.65625 1310.71972656 c 0
 2432.24121094 1249.84765625 2451.25097656 1180.85742188 2473.984375 1114.11230469 c 0
 2505.26269531 1022.27636719 2530.06445312 927.845703125 2540.08789062 831.348632812 c 0
 2550.11035156 734.850585938 2545.45898438 637.506835938 2539.51953125 540.671875 c 0
 2534.11523438 452.537109375 2528.22363281 363.314453125 2544.40625 276.509765625 c 0
 2552.49804688 233.107421875 2566.35644531 190.500976562 2588.4140625 152.255859375 c 0
 2610.47167969 114.009765625 2641.00488281 80.19140625 2678.78417969 57.34375 c 0
 2715.04296875 35.416015625 2757.23339844 24.05859375 2799.5625 22.1142578125 c 0
 2841.89257812 20.169921875 2884.39257812 27.4169921875 2924.54394531 40.9599609375 c 0
 3005.33789062 68.2109375 3076.10839844 119.799804688 3137.21582031 179.264648438 c 0
 3198.32324219 238.729492188 3250.76074219 306.555664062 3299.09277344 376.799804688 c 0
 3395.75585938 517.2890625 3478.22851562 667.092773438 3555.328125 819.200195312 c 1
 3563.51953125 819.200195312 l 1
 3488.90820312 669.484375 3408.46875 522.319335938 3314.82519531 383.7109375 c 0
 3268.00292969 314.40625 3217.42773438 247.328125 3159.12402344 187.360351562 c 0
 3100.8203125 127.393554688 3034.09960938 74.11328125 2957.31152344 40.9599609375 c 0
 2913.1640625 21.8984375 2865.70117188 9.7841796875 2817.62792969 8.619140625 c 0
 2769.55566406 7.453125 2720.79394531 17.560546875 2678.78417969 40.9599609375 c 0
 2639.10058594 63.0634765625 2606.30761719 96.525390625 2582.06640625 134.940429688 c 0
 2557.82519531 173.356445312 2541.88671875 216.639648438 2532.15429688 261.008789062 c 0
 2512.69042969 349.748046875 2517.265625 441.821289062 2523.13574219 532.48046875 c 0
 2529.3984375 629.18359375 2536.35742188 726.265625 2528.43066406 822.84765625 c 0
 2520.50292969 919.428710938 2497.01953125 1014.18359375 2465.79199219 1105.91992188 c 0
 2447.97167969 1158.27148438 2430.36425781 1210.79492188 2408.44824219 1261.56835938 c 0
 2400.97265625 1278.88671875 2392.69921875 1295.93652344 2382.26660156 1311.65136719 c 0
 2371.83300781 1327.36621094 2359.04980469 1341.9140625 2342.91210938 1351.6796875 c 0
 2329.43945312 1359.83300781 2313.3359375 1364.35546875 2297.77929688 1361.91113281 c 0
 2290.00097656 1360.68945312 2282.47558594 1357.73535156 2276.06835938 1353.15820312 c 0
 2269.66210938 1348.58007812 2264.41503906 1342.38671875 2260.9921875 1335.29589844 c 0
 2256.57226562 1326.13964844 2255.2734375 1315.58203125 2256.91503906 1305.54785156 c 0
 2258.55566406 1295.51367188 2263.02832031 1286.04492188 2269.18359375 1277.95214844 c 0
 2281.37695312 1261.921875 2299.61425781 1251.36328125 2318.64550781 1244.77148438 c 0
 2337.67578125 1238.1796875 2357.79394531 1235.21972656 2377.8828125 1233.77929688 c 0
 2418.05957031 1230.89941406 2458.44140625 1233.38867188 2498.55957031 1236.9921875 c 0
 2628.23046875 1248.63769531 2757.42675781 1275.39160156 2877.39355469 1325.96679688 c 0
 2997.36132812 1376.54199219 3108.06738281 1458.51171875 3170.30371094 1572.86425781 c 0
 3209.91210938 1645.63867188 3228.74609375 1729.42773438 3224.87207031 1812.19238281 c 0
 3220.99804688 1894.95703125 3195.06542969 1976.08300781 3153.91992188 2048 c 0
 3058.13964844 2215.4140625 2886.14257812 2330.12011719 2702.2109375 2388.17675781 c 0
 2518.27832031 2446.23339844 2319.68359375 2451.15234375 2129.91992188 2416.63964844 c 0
 1858.84179688 2367.33886719 1606.37109375 2238.36523438 1387.74609375 2070.68457031 c 0
 1169.12109375 1903.00292969 981.463867188 1697.23535156 819.200195312 1474.55957031 c 0
 717.161132812 1334.53222656 623.8359375 1187.86132812 545.084960938 1033.53125 c 0
 466.333007812 879.200195312 398.822265625 713.842773438 393.215820312 540.671875 c 0
 390.484375 456.302734375 404.65234375 370.430664062 442.368164062 294.912109375 c 0
 482.751953125 214.048828125 550.177734375 147.41796875 630.5703125 106.104492188 c 0
 710.961914062 64.791015625 802.548828125 47.970703125 892.927734375 49.15234375 c 0
 1016.296875 50.7646484375 1137.86914062 83.865234375 1250.80664062 133.5390625 c 0
 1363.74414062 183.211914062 1468.71972656 250.120117188 1564.671875 327.6796875 c 0
 1795.69726562 514.421875 1969.59570312 760.63671875 2146.30371094 999.423828125 c 0
 2312.47265625 1223.96972656 2486.82128906 1443.5390625 2686.97558594 1638.40039062 c 0
 2868.55859375 1815.18066406 3069.14453125 1972.55175781 3284.9921875 2105.34375 c 1
 3301.37597656 2105.34375 l 1
  Spiro
    3301.38 2105.34 v
    2703.36 1622.02 o
    2162.69 974.848 o
    1613.82 278.528 o
    1015.81 16.384 o
    393.216 376.832 o
    385.024 622.592 o
    811.008 1490.94 o
    2129.92 2433.02 o
    3145.73 2097.15 o
    3178.5 1548.29 o
    2547.71 1228.8 o
    2260.99 1269.76 o
    2252.8 1351.68 o
    2318.34 1376.26 o
    2396.66 1310.72 o
    2473.98 1114.11 o
    2539.52 540.672 o
    2678.78 57.344 c
    2924.54 40.96 o
    3555.33 819.2 v
    3563.52 819.2 v
    2957.31 40.96 o
    2678.78 40.96 c
    2523.14 532.48 o
    2465.79 1105.92 o
    2408.45 1261.57 o
    2342.91 1351.68 o
    2260.99 1335.3 o
    2269.18 1277.95 o
    2498.56 1236.99 o
    3170.3 1572.86 o
    3153.92 2048 o
    2129.92 2416.64 o
    819.2 1474.56 o
    393.216 540.672 o
    442.368 294.912 o
    892.928 49.152 o
    1564.67 327.68 o
    2146.3 999.424 o
    2686.98 1638.4 o
    3284.99 2105.34 v
    0 0 z
  EndSpiro
EndSplineSet
Validated: 37
EndChar

StartChar: G
Encoding: 7 71 11
Width: 4628
VWidth: 0
InSpiro: 1
Flags: HW
LayerCount: 3
Fore
SplineSet
106.49609375 8.1923828125 m 1
 370.291992188 148.456054688 622.194335938 310.870117188 860.16015625 491.51953125 c 0
 1174.66992188 730.276367188 1464.12304688 1000.30566406 1744.89648438 1277.95214844 c 0
 1931.66210938 1462.63769531 2118.85742188 1647.2421875 2293.75976562 1843.20019531 c 0
 2384.39160156 1944.7421875 2465.98535156 2053.85058594 2547.71191406 2162.68847656 c 0
 2566.40820312 2187.5859375 2585.80761719 2211.94335938 2605.05566406 2236.41601562 c 0
 2624.84375 2261.57421875 2644.8203125 2287.65234375 2654.20996094 2318.25195312 c 0
 2658.90429688 2333.55078125 2660.68652344 2349.88085938 2658.13085938 2365.67871094 c 0
 2655.57421875 2381.47753906 2648.56933594 2396.58886719 2637.82421875 2408.44824219 c 0
 2622.09765625 2425.8046875 2598.85351562 2435.34375 2575.48046875 2436.85546875 c 0
 2552.10839844 2438.3671875 2528.80859375 2432.7109375 2506.75195312 2424.83203125 c 0
 2430.75976562 2397.68652344 2358.47363281 2361.11621094 2285.56835938 2326.52832031 c 0
 2210.13769531 2290.7421875 2140.79199219 2243.58886719 2072.57617188 2195.45605469 c 0
 1987.75195312 2135.60449219 1900.45507812 2079.11425781 1818.62402344 2015.23242188 c 0
 1728.67871094 1945.015625 1648.8203125 1862.81738281 1572.86425781 1777.6640625 c 0
 1460.37109375 1651.55078125 1347.92773438 1524.51660156 1253.37597656 1384.44824219 c 0
 1177.58203125 1272.16699219 1111.33984375 1149.50976562 1089.53613281 1015.80761719 c 0
 1082.69726562 973.87109375 1080.92773438 930.905273438 1087.06738281 888.860351562 c 0
 1093.20703125 846.81640625 1107.5234375 805.79296875 1130.49609375 770.047851562 c 0
 1154.4453125 732.782226562 1187.67675781 701.641601562 1226.07128906 679.545898438 c 0
 1264.46582031 657.451171875 1307.70214844 644.290039062 1351.6796875 638.975585938 c 0
 1457.71777344 626.163085938 1564.97460938 657.169921875 1661.02246094 703.893554688 c 0
 1757.0703125 750.6171875 1844.58300781 813.130859375 1928.65722656 879.0078125 c 0
 2096.80566406 1010.76171875 2255.21582031 1154.42480469 2416.63964844 1294.3359375 c 1
 2424.83203125 1294.3359375 l 1
 2270.80078125 1150.12207031 2116.38085938 1005.85742188 1950.97070312 874.8515625 c 0
 1868.265625 809.348632812 1782.00488281 747.509765625 1687.89453125 699.823242188 c 0
 1593.78417969 652.13671875 1489.8671875 618.405273438 1384.44824219 622.591796875 c 0
 1335.87988281 624.521484375 1287.40429688 634.86328125 1243.34765625 655.393554688 c 0
 1199.29003906 675.924804688 1159.97265625 706.82421875 1130.49609375 745.471679688 c 0
 1100.91210938 784.259765625 1081.49707031 830.44921875 1072.59082031 878.412109375 c 0
 1063.68554688 926.374023438 1064.97363281 975.908203125 1073.15234375 1024 c 0
 1096.06347656 1158.73339844 1167.24316406 1280.375 1245.18359375 1392.63964844 c 0
 1341.55664062 1531.45410156 1450.60839844 1661.16992188 1564.671875 1785.85644531 c 0
 1645.62109375 1874.34375 1732.22558594 1957.88964844 1826.81640625 2031.61621094 c 0
 1903.93652344 2091.7265625 1984.4765625 2147.29394531 2064.38378906 2203.6484375 c 0
 2132.59570312 2251.75292969 2202.37011719 2298.10058594 2277.37597656 2334.71972656 c 0
 2349.89550781 2370.12597656 2422.36621094 2406.43164062 2498.55957031 2433.02441406 c 0
 2525.84960938 2442.54882812 2554.95410156 2449.140625 2583.58984375 2445.20507812 c 0
 2597.90722656 2443.23730469 2611.91894531 2438.5703125 2624.19824219 2430.94824219 c 0
 2636.4765625 2423.32617188 2646.92675781 2412.74023438 2654.20800781 2400.25585938 c 0
 2661.29589844 2388.10449219 2665.34375 2374.25292969 2666.34667969 2360.22070312 c 0
 2667.34960938 2346.18945312 2665.3671875 2332.02929688 2661.35449219 2318.54589844 c 0
 2653.32714844 2291.58007812 2637.6953125 2267.57226562 2621.44042969 2244.60839844 c 0
 2599.98046875 2214.29296875 2577.54980469 2184.67773438 2555.90429688 2154.49609375 c 0
 2476.56054688 2043.8671875 2393.37695312 1935.88183594 2301.95214844 1835.0078125 c 0
 2133.3515625 1648.98339844 1955.02832031 1472.02441406 1777.6640625 1294.3359375 c 0
 1493.21289062 1009.36425781 1198.36035156 733.502929688 876.543945312 491.51953125 c 0
 635.91015625 310.580078125 381.170898438 148.302734375 114.688476562 8.1923828125 c 1
 106.49609375 8.1923828125 l 1
  Spiro
    106.496 8.192 v
    860.16 491.52 o
    1744.9 1277.95 o
    2293.76 1843.2 o
    2547.71 2162.69 o
    2605.06 2236.42 o
    2637.82 2408.45 o
    2506.75 2424.83 o
    2285.57 2326.53 o
    2072.58 2195.46 o
    1818.62 2015.23 o
    1572.86 1777.66 o
    1253.38 1384.45 o
    1089.54 1015.81 o
    1130.5 770.048 o
    1351.68 638.976 o
    2416.64 1294.34 v
    2424.83 1294.34 v
    1384.45 622.592 o
    1130.5 745.472 o
    1073.15 1024 o
    1245.18 1392.64 o
    1564.67 1785.86 o
    1826.82 2031.62 o
    2064.38 2203.65 o
    2277.38 2334.72 o
    2498.56 2433.02 o
    2654.21 2400.26 o
    2621.44 2244.61 o
    2555.9 2154.5 o
    2301.95 1835.01 o
    1777.66 1294.34 o
    876.544 491.52 o
    114.688 8.192 v
    0 0 z
  EndSpiro
2423.72949219 1294.3359375 m 1
 2336.26074219 1187.61914062 2252.29101562 1078.0625 2170.87988281 966.65625 c 0
 1996.37109375 727.8515625 1836.24804688 473.486328125 1613.82421875 278.528320312 c 0
 1446.90234375 132.217773438 1237.58984375 25.4541015625 1015.80761719 16.3837890625 c 0
 878.421875 10.765625 739.353515625 42.62109375 619.404296875 109.842773438 c 0
 499.456054688 177.064453125 398.958984375 279.234375 335.872070312 401.408203125 c 0
 292.354492188 485.682617188 266.673828125 579.361328125 263.19921875 674.14453125 c 0
 259.725585938 768.927734375 278.77734375 864.606445312 319.48828125 950.272460938 c 0
 395.290039062 1109.78027344 547.129882812 1228.08886719 717.477539062 1274.6796875 c 0
 887.82421875 1321.26953125 1072.43164062 1301.09179688 1236.9921875 1236.9921875 c 0
 1433.58105469 1160.41601562 1605.12207031 1023.09960938 1728.51171875 851.967773438 c 1
 1720.3203125 843.776367188 l 1
 1567.06738281 1054.296875 1336.8984375 1211.59570312 1081.34375 1261.56835938 c 0
 934.508789062 1290.28125 778.51171875 1281.70507812 640.66015625 1223.54980469 c 0
 502.80859375 1165.39453125 386.208984375 1055.19726562 327.6796875 917.50390625 c 0
 286.506835938 820.641601562 273.954101562 712.201171875 289.333984375 608.080078125 c 0
 304.713867188 503.959960938 347.272460938 404.298828125 409.599609375 319.48828125 c 0
 522.396484375 166.001953125 702.974609375 63.2568359375 892.927734375 49.15234375 c 0
 1017.19824219 39.923828125 1142.74609375 67.38671875 1256.15527344 119.026367188 c 0
 1369.56445312 170.665039062 1471.39941406 245.044921875 1564.671875 327.6796875 c 0
 1780.4296875 518.830078125 1960.37109375 746.385742188 2146.30371094 966.65625 c 0
 2238.61816406 1076.01855469 2330.98828125 1185.33496094 2423.72949219 1294.3359375 c 1
 2423.72949219 1294.3359375 l 1
  Spiro
    2423.73 1294.34 v
    2170.88 966.656 o
    1613.82 278.528 o
    1015.81 16.384 o
    335.872 401.408 o
    319.488 950.272 o
    1236.99 1236.99 o
    1728.51 851.968 v
    1720.32 843.776 v
    1081.34 1261.57 o
    327.68 917.504 o
    409.6 319.488 o
    892.928 49.152 o
    1564.67 327.68 o
    2146.3 966.656 o
    2423.73 1294.34 v
    0 0 z
  EndSpiro
EndSplineSet
Validated: 37
EndChar

StartChar: S
Encoding: 19 83 12
Width: 4096
VWidth: 0
InSpiro: 1
Flags: HW
LayerCount: 3
Fore
SplineSet
24.576171875 0 m 1
 419.1171875 112.6875 804.318359375 259.142578125 1171.45605469 442.368164062 c 0
 1501.43652344 607.049804688 1812.0546875 808.610351562 2105.34375 1032.19238281 c 0
 2233.91210938 1130.20214844 2360.96679688 1230.19726562 2490.36816406 1327.10351562 c 0
 2574.73730469 1390.28710938 2659.74316406 1452.61523438 2744.3203125 1515.51953125 c 0
 2899.45605469 1630.90429688 3057.33300781 1742.59667969 3211.26367188 1859.58398438 c 0
 3288.27539062 1918.11230469 3364.3828125 1980.60644531 3418.87011719 2060.52832031 c 0
 3446.11328125 2100.48925781 3467.45898438 2144.98046875 3477.1484375 2192.36328125 c 0
 3486.83886719 2239.74707031 3484.39453125 2290.32128906 3465.21582031 2334.71972656 c 0
 3452.72851562 2363.62890625 3433.08007812 2389.57421875 3407.87207031 2408.44824219 c 0
 3371.53613281 2435.65234375 3324.32421875 2446.77246094 3279.1953125 2441.88964844 c 0
 3234.06738281 2437.00683594 3191.50292969 2417.51757812 3153.91992188 2392.06445312 c 0
 3088.765625 2347.9375 3035.98632812 2288.0390625 2985.72460938 2227.4921875 c 0
 2935.46289062 2166.94433594 2887.95019531 2104.13378906 2842.62402344 2039.80761719 c 0
 2755.72167969 1916.47851562 2679.56542969 1785.97363281 2605.05566406 1654.78417969 c 0
 2542.83105469 1545.22265625 2480.86328125 1435.50585938 2416.63964844 1327.10351562 c 0
 2191.27148438 946.704101562 1953.29296875 561.823242188 1613.82421875 278.528320312 c 0
 1443.74316406 136.591796875 1237.04101562 27.75390625 1015.80761719 16.3837890625 c 0
 878.264648438 9.3154296875 738.609375 40.6328125 618.591796875 108.189453125 c 0
 498.57421875 175.74609375 398.563476562 278.778320312 335.872070312 401.408203125 c 0
 292.721679688 485.8125 267.231445312 579.44140625 263.720703125 674.171875 c 0
 260.208984375 768.901367188 279.020507812 864.548828125 319.48828125 950.272460938 c 0
 394.928710938 1110.07910156 546.739257812 1228.78515625 717.213867188 1275.34863281 c 0
 887.688476562 1321.91210938 1072.41308594 1301.36328125 1236.9921875 1236.9921875 c 0
 1433.4453125 1160.15332031 1604.86230469 1022.87304688 1728.51171875 851.967773438 c 1
 1720.3203125 843.776367188 l 1
 1567.0546875 1054.28515625 1336.89355469 1211.58300781 1081.34375 1261.56835938 c 0
 934.506835938 1290.2890625 778.505859375 1281.72167969 640.651367188 1223.56640625 c 0
 502.796875 1165.41210938 386.198242188 1055.20507812 327.6796875 917.50390625 c 0
 286.515625 820.639648438 273.97265625 712.201171875 289.353515625 608.083007812 c 0
 304.734375 503.965820312 347.284179688 404.3046875 409.599609375 319.48828125 c 0
 522.380859375 165.982421875 702.965820312 63.212890625 892.927734375 49.15234375 c 0
 1017.19628906 39.953125 1142.72753906 67.4521484375 1256.13964844 119.076171875 c 0
 1369.55273438 170.69921875 1471.4453125 244.999023438 1564.671875 327.6796875 c 0
 1895.00585938 620.649414062 2158.03515625 982.517578125 2400.25585938 1351.6796875 c 0
 2468.86328125 1456.2421875 2533.77148438 1563.18847656 2596.86425781 1671.16796875 c 0
 2671.06640625 1798.16210938 2743.60058594 1926.32617188 2826.24023438 2048 c 0
 2873.26464844 2117.23632812 2922.99707031 2184.71875 2977.14257812 2248.54101562 c 0
 3031.2890625 2312.36328125 3089.92382812 2374.28417969 3162.11230469 2416.63964844 c 0
 3198.34863281 2437.90136719 3238.41015625 2453.57324219 3280.20898438 2457.81542969 c 0
 3322.0078125 2462.05859375 3365.33203125 2454.12207031 3401.6640625 2433.02441406 c 0
 3436.95703125 2412.52832031 3464.86816406 2380.13769531 3481.59960938 2342.91210938 c 0
 3503.25976562 2294.72460938 3506.58105469 2239.43652344 3496.2109375 2187.63378906 c 0
 3485.84179688 2135.83007812 3462.34765625 2087.24121094 3432.234375 2043.83203125 c 0
 3372.0078125 1957.01464844 3287.69140625 1890.09472656 3203.07226562 1826.81640625 c 0
 3051.29492188 1713.31542969 2897.18359375 1602.97753906 2744.3203125 1490.94433594 c 0
 2654.44921875 1425.07714844 2563.85351562 1360.20410156 2473.984375 1294.3359375 c 0
 2363.86035156 1213.62304688 2255.30859375 1130.79492188 2146.30371094 1048.57617188 c 0
 1842.89648438 819.724609375 1526.46875 606.686523438 1187.83984375 434.17578125 c 0
 825.20703125 249.4375 442.561523438 104.209960938 49.15234375 0 c 1
 24.576171875 0 l 1
  Spiro
    24.576 0 v
    1171.46 442.368 o
    2105.34 1032.19 o
    2490.37 1327.1 o
    2744.32 1515.52 o
    3211.26 1859.58 o
    3465.22 2334.72 o
    3407.87 2408.45 o
    3153.92 2392.06 o
    2842.62 2039.81 o
    2605.06 1654.78 o
    2416.64 1327.1 o
    1613.82 278.528 o
    1015.81 16.384 o
    335.872 401.408 o
    319.488 950.272 o
    1236.99 1236.99 o
    1728.51 851.968 v
    1720.32 843.776 v
    1081.34 1261.57 o
    327.68 917.504 o
    409.6 319.488 o
    892.928 49.152 o
    1564.67 327.68 o
    2400.26 1351.68 o
    2596.86 1671.17 o
    2826.24 2048 o
    3162.11 2416.64 o
    3401.66 2433.02 o
    3481.6 2342.91 o
    3203.07 1826.82 o
    2744.32 1490.94 o
    2473.98 1294.34 o
    2146.3 1048.58 o
    1187.84 434.176 o
    49.152 0 v
    0 0 z
  EndSpiro
EndSplineSet
Validated: 37
EndChar

StartChar: L
Encoding: 12 76 13
Width: 4096
VWidth: 0
InSpiro: 1
Flags: HW
LayerCount: 3
Fore
SplineSet
1114.11230469 0 m 1
 1351.55859375 178.876953125 1583.91015625 364.53125 1810.43164062 557.055664062 c 0
 2015.23339844 731.120117188 2215.45507812 910.657226562 2408.44824219 1097.72753906 c 0
 2568.00097656 1252.38574219 2723.11523438 1411.89355469 2867.20019531 1581.05566406 c 0
 2960.7421875 1690.87988281 3048.5 1805.63867188 3129.34375 1925.12011719 c 0
 3165.84863281 1979.0703125 3201.5078125 2033.6015625 3235.83984375 2088.95996094 c 0
 3259.05371094 2126.390625 3281.38085938 2164.40429688 3301.37597656 2203.6484375 c 0
 3316.36132812 2233.05859375 3330.51855469 2262.93945312 3342.3359375 2293.75976562 c 0
 3349.46582031 2312.35546875 3355.53027344 2331.44628906 3358.71972656 2351.10351562 c 0
 3361.79785156 2370.0703125 3362.57714844 2389.62402344 3358.71972656 2408.44824219 c 0
 3357.08007812 2416.45019531 3354.48925781 2424.30761719 3350.45996094 2431.4140625 c 0
 3346.43164062 2438.52050781 3340.90332031 2444.8203125 3334.14355469 2449.40820312 c 0
 3328.24804688 2453.40917969 3321.4765625 2456.07617188 3314.46777344 2457.36328125 c 0
 3307.45898438 2458.65039062 3300.24023438 2458.59375 3293.18359375 2457.59960938 c 0
 3271.16113281 2454.5 3251.11914062 2443.33691406 3232.390625 2431.34375 c 0
 3213.66210938 2419.35058594 3195.859375 2405.95996094 3178.49609375 2392.06445312 c 0
 3155.82714844 2373.92089844 3134.09472656 2354.62890625 3112.95996094 2334.71972656 c 0
 3084.84765625 2308.23730469 3057.72753906 2280.71875 3031.04003906 2252.79980469 c 0
 2912.40332031 2128.69042969 2798.69628906 1999.95703125 2684.93652344 1871.36328125 c 0
 2571.17578125 1742.76855469 2461.41699219 1610.08789062 2367.48828125 1466.36816406 c 0
 2291.85058594 1350.63574219 2225.18066406 1229.24707031 2162.68847656 1105.91992188 c 0
 2116.359375 1014.4921875 2072.11621094 921.727539062 2038.06738281 825.052734375 c 0
 2004.01953125 728.377929688 1980.8125 626.770507812 1982.46386719 524.288085938 c 0
 1983.59277344 454.262695312 1996.61328125 384.1875 2023.42382812 319.48828125 c 0
 2060.44726562 230.140625 2124.18261719 152.267578125 2203.83105469 97.4072265625 c 0
 2283.47949219 42.5458984375 2377.82519531 10.3515625 2473.984375 0 c 0
 2597.62109375 -13.30859375 2724.51269531 8.4384765625 2837.89355469 59.5078125 c 0
 2951.2734375 110.578125 3051.71972656 191.75 3121.15234375 294.912109375 c 0
 3170.78515625 368.657226562 3204.2421875 453.641601562 3215.1484375 541.862304688 c 0
 3226.05371094 630.083007812 3213.97753906 721.311523438 3178.49609375 802.81640625 c 0
 3121.79980469 933.053710938 3003.88183594 1034.49316406 2867.20019531 1073.15234375 c 0
 2757.68261719 1104.12792969 2637.98144531 1096.21386719 2532.50390625 1053.45800781 c 0
 2427.02636719 1010.70214844 2335.43164062 933.477539062 2277.37597656 835.583984375 c 0
 2230.7421875 756.950195312 2206.26464844 664.69140625 2211.83984375 573.440429688 c 0
 2215.88085938 507.303710938 2235.61132812 442.149414062 2269.18359375 385.024414062 c 1
 2277.37597656 385.024414062 l 1
 2247.97460938 443.432617188 2231.12792969 508.11328125 2228.22363281 573.440429688 c 0
 2224.16894531 664.670898438 2247.60839844 756.783203125 2293.75976562 835.583984375 c 0
 2348.23828125 928.602539062 2434.11816406 1002.71582031 2533.79296875 1043.76757812 c 0
 2633.46875 1084.81933594 2746.63671875 1092.65625 2850.81640625 1064.95996094 c 0
 2992.31152344 1027.34375 3114.45214844 921.770507812 3170.30371094 786.431640625 c 0
 3201.86132812 709.963867188 3212.88476562 625.357421875 3203.63476562 543.15234375 c 0
 3194.38574219 460.947265625 3165.16992188 381.336914062 3121.15234375 311.295898438 c 0
 3054.41601562 205.106445312 2954.3671875 121.135742188 2840.58007812 68.38671875 c 0
 2726.79296875 15.638671875 2598.47851562 -7.0078125 2473.984375 8.1923828125 c 0
 2380.9921875 19.5458984375 2289.97949219 52.98046875 2215.41308594 109.69140625 c 0
 2140.84570312 166.40234375 2084.58007812 246.59375 2056.19238281 335.872070312 c 0
 2037.73730469 393.91015625 2030.52246094 455.204101562 2031.61621094 516.095703125 c 0
 2035.24609375 718.155273438 2118.27636719 910.407226562 2211.83984375 1089.53613281 c 0
 2270.84375 1202.49902344 2337.18945312 1311.5546875 2408.44824219 1417.21582031 c 0
 2603.10742188 1705.85449219 2835.69433594 1966.52929688 3055.61621094 2236.41601562 c 0
 3080.1328125 2266.50292969 3104.20410156 2296.95996094 3129.34375 2326.52832031 c 0
 3149.38867188 2350.10351562 3170.72753906 2372.71875 3194.87988281 2392.06445312 c 0
 3209.77929688 2403.99804688 3225.48242188 2414.91113281 3241.64257812 2425.07226562 c 0
 3257.80273438 2435.23339844 3274.53613281 2445.32421875 3293.18359375 2449.40820312 c 0
 3300.24414062 2450.95410156 3307.59375 2451.46875 3314.71484375 2450.23144531 c 0
 3321.8359375 2448.99414062 3328.65917969 2445.92285156 3334.14355469 2441.21582031 c 0
 3338.87402344 2437.15722656 3342.56542969 2431.96191406 3345.19824219 2426.31347656 c 0
 3347.83105469 2420.6640625 3349.45703125 2414.58789062 3350.52832031 2408.44824219 c 0
 3353.82519531 2389.55078125 3353.23828125 2370.09472656 3350.52832031 2351.10351562 c 0
 3347.71289062 2331.375 3341.51855469 2312.27441406 3334.14355469 2293.75976562 c 0
 3321.93164062 2263.10058594 3307.88964844 2233.19238281 3293.18359375 2203.6484375 c 0
 3273.5546875 2164.21289062 3251.10742188 2126.24414062 3227.6484375 2088.95996094 c 0
 3192.95800781 2033.82714844 3157.45898438 1979.20117188 3121.15234375 1925.12011719 c 0
 3041.92578125 1807.10742188 2953.23632812 1695.66699219 2859.0078125 1589.24804688 c 0
 2711.73339844 1422.91992188 2558.30078125 1262.05078125 2400.25585938 1105.91992188 c 0
 2217.25488281 925.134765625 2024.19042969 754.796875 1826.81640625 589.82421875 c 0
 1586.9609375 389.34375 1342.75683594 194.123046875 1097.72753906 0 c 1
 1114.11230469 0 l 1
  Spiro
    1114.11 0 v
    1810.43 557.056 o
    2408.45 1097.73 o
    2867.2 1581.06 o
    3129.34 1925.12 o
    3235.84 2088.96 o
    3301.38 2203.65 o
    3342.34 2293.76 o
    3358.72 2351.1 o
    3358.72 2408.45 o
    3334.14 2449.41 o
    3293.18 2457.6 o
    3178.5 2392.06 o
    3112.96 2334.72 o
    3031.04 2252.8 o
    2367.49 1466.37 o
    2162.69 1105.92 o
    1982.46 524.288 o
    2023.42 319.488 o
    2473.98 0 o
    3121.15 294.912 o
    3178.5 802.816 o
    2867.2 1073.15 o
    2277.38 835.584 o
    2211.84 573.44 o
    2269.18 385.024 v
    2277.38 385.024 v
    2228.22 573.44 o
    2293.76 835.584 o
    2850.82 1064.96 o
    3170.3 786.432 o
    3121.15 311.296 o
    2473.98 8.192 o
    2056.19 335.872 o
    2031.62 516.096 o
    2211.84 1089.54 o
    2408.45 1417.22 o
    3055.62 2236.42 o
    3129.34 2326.53 o
    3194.88 2392.06 o
    3293.18 2449.41 o
    3334.14 2441.22 o
    3350.53 2408.45 o
    3350.53 2351.1 o
    3334.14 2293.76 o
    3293.18 2203.65 o
    3227.65 2088.96 o
    3121.15 1925.12 o
    2859.01 1589.25 o
    2400.26 1105.92 o
    1826.82 589.824 o
    1097.73 0 v
    0 0 z
  EndSpiro
EndSplineSet
Validated: 37
EndChar

StartChar: X
Encoding: 24 88 14
Width: 6455
VWidth: 0
InSpiro: 1
Flags: HW
LayerCount: 3
Fore
SplineSet
5095.42382812 2457.59960938 m 2
 4926.99511719 2433.9140625 4762.85839844 2380.69238281 4612.09570312 2301.95214844 c 0
 4392.40527344 2187.21191406 4203.7578125 2018.671875 4046.84765625 1826.81640625 c 0
 3908.07324219 1657.13378906 3789.66113281 1471.31054688 3686.40039062 1277.95214844 c 0
 3586.1796875 1090.28808594 3501.9765625 890.7578125 3473.40820312 679.935546875 c 0
 3457.55957031 562.985351562 3456.43945312 442.986328125 3481.59960938 327.6796875 c 0
 3492.265625 278.80078125 3508.26269531 230.83203125 3532.33886719 186.9765625 c 0
 3556.41503906 143.122070312 3588.91113281 103.583007812 3629.05566406 73.7275390625 c 0
 3665.4375 46.671875 3707.859375 27.8271484375 3752.29492188 18.8193359375 c 0
 3796.73046875 9.8115234375 3842.9296875 10.5517578125 3887.44140625 19.173828125 c 0
 3976.46484375 36.41796875 4057.01367188 83.8212890625 4128.76757812 139.263671875 c 0
 4252.82226562 235.1171875 4360.09863281 351.465820312 4456.44824219 475.135742188 c 0
 4539.51367188 581.755859375 4611.50195312 697.08984375 4669.44042969 819.200195312 c 1
 4677.63183594 819.200195312 l 1
 4621.79589844 700.2734375 4552.63574219 587.6953125 4472.83203125 483.328125 c 0
 4370.50683594 349.508789062 4255.42089844 223.849609375 4120.57617188 122.879882812 c 0
 4048.22363281 68.703125 3966.95117188 23.1328125 3877.90332031 7.6259765625 c 0
 3833.37890625 -0.126953125 3787.34472656 -0.0576171875 3743.18164062 9.5419921875 c 0
 3699.01855469 19.140625 3656.96484375 38.3466796875 3620.86425781 65.5361328125 c 0
 3580.92480469 95.6162109375 3548.54882812 135.16796875 3524.45996094 178.981445312 c 0
 3500.37011719 222.795898438 3484.24609375 270.677734375 3473.40820312 319.48828125 c 0
 3446.63183594 440.078125 3448.24316406 565.772460938 3465.21582031 688.127929688 c 0
 3494.44824219 898.856445312 3577.38671875 1098.8046875 3678.20800781 1286.14355469 c 0
 3781.01171875 1477.16699219 3900.51953125 1659.55273438 4038.65625 1826.81640625 c 0
 4188.71289062 2008.51269531 4365.39746094 2170.66601562 4571.13574219 2285.56835938 c 0
 4725.77246094 2371.9296875 4895.73828125 2431.00195312 5070.84765625 2457.59960938 c 2
 5095.42382812 2457.59960938 l 2
  Spiro
    5095.42 2457.6 v
    4612.1 2301.95 o
    4046.85 1826.82 o
    3686.4 1277.95 o
    3473.41 679.936 o
    3481.6 327.68 o
    3629.06 73.728 o
    4128.77 139.264 o
    4456.45 475.136 o
    4669.44 819.2 v
    4677.63 819.2 v
    4472.83 483.328 o
    4120.58 122.88 o
    3620.86 65.536 o
    3473.41 319.488 o
    3465.22 688.128 o
    3678.21 1286.14 o
    4038.66 1826.82 o
    4571.14 2285.57 o
    5070.85 2457.6 v
    0 0 z
  EndSpiro
2048 8.1923828125 m 1
 1897.26367188 326.750976562 1863.91503906 696.609375 1941.50390625 1040.38378906 c 0
 1993.29003906 1269.83300781 2089.99609375 1487.76953125 2212.40917969 1688.62695312 c 0
 2334.82226562 1889.484375 2481.28222656 2078.140625 2662.40039062 2228.22363281 c 0
 2783.43066406 2328.515625 2923.42285156 2410.22363281 3077.25878906 2442.49414062 c 0
 3231.09375 2474.76367188 3398.296875 2452.11816406 3530.75195312 2367.48828125 c 0
 3661.62695312 2283.8671875 3751.99023438 2143.91796875 3787.55078125 1992.73535156 c 0
 3823.11132812 1841.55371094 3808.28515625 1681.98242188 3768.3203125 1531.90429688 c 0
 3708.56640625 1307.515625 3598.46582031 1099.32714844 3472.97558594 903.94921875 c 0
 3347.48535156 708.5703125 3202.75683594 525.311523438 3039.23242188 360.448242188 c 0
 2906.55859375 226.688476562 2761.08886719 105.58203125 2605.05566406 0 c 1
 2588.671875 0 l 1
 2756.6796875 108.760742188 2910.67773438 238.887695312 3047.42382812 385.024414062 c 0
 3334.87597656 692.21484375 3570.19726562 1053.52929688 3710.97558594 1449.984375 c 0
 3767.80273438 1610.01855469 3802.41601562 1782.04003906 3777.15429688 1949.97460938 c 0
 3764.52441406 2033.94238281 3736.60058594 2115.94238281 3692.13964844 2188.28417969 c 0
 3647.67773438 2260.625 3586.60839844 2322.86328125 3514.36816406 2367.48828125 c 0
 3388.59570312 2445.18066406 3231.64355469 2465.38378906 3086.91210938 2435.25683594 c 0
 2942.18066406 2405.12988281 2810.03515625 2329.47753906 2695.16796875 2236.41601562 c 0
 2510.36132812 2086.69238281 2361.92285156 1895.97851562 2236.72558594 1693.75 c 0
 2111.52734375 1491.52246094 2011.42480469 1272.12597656 1957.88769531 1040.38378906 c 0
 1877.75 693.493164062 1913.58984375 318.557617188 2072.57617188 0 c 1
 2048 8.1923828125 l 1
  Spiro
    2048 8.192 v
    1941.5 1040.38 o
    2662.4 2228.22 o
    3530.75 2367.49 o
    3768.32 1531.9 o
    3039.23 360.448 o
    2605.06 0 v
    2588.67 0 v
    3047.42 385.024 o
    3710.98 1449.98 o
    3514.37 2367.49 o
    2695.17 2236.42 o
    1957.89 1040.38 o
    2072.58 0 v
    0 0 z
  EndSpiro
EndSplineSet
Validated: 37
EndChar

StartChar: W
Encoding: 23 87 15
Width: 6455
VWidth: 0
InSpiro: 1
Flags: HW
LayerCount: 3
Fore
SplineSet
3932.16015625 0 m 1
 4164.97753906 429.499023438 4451.95019531 829.60546875 4784.12792969 1187.83984375 c 0
 4931.26855469 1346.52246094 5087.23730469 1497.01855469 5251.07226562 1638.40039062 c 1
 5242.87988281 1638.40039062 l 1
 5075.65917969 1497.92089844 4916.8984375 1347.37109375 4767.74414062 1187.83984375 c 0
 4435.05566406 832.004882812 4150.41796875 431.301757812 3923.96777344 0 c 1
 3932.16015625 0 l 1
  Spiro
    3932.16 0 v
    4784.13 1187.84 o
    5251.07 1638.4 v
    5242.88 1638.4 v
    4767.74 1187.84 o
    3923.97 0 v
    0 0 z
  EndSpiro
5054.46386719 2457.59960938 m 1
 5046.27246094 2457.59960938 l 1
 4696.45214844 1831.20019531 4387.03320312 1182.2421875 4120.57617188 516.095703125 c 0
 4052.203125 345.163085938 3986.65527344 173.099609375 3923.96777344 0 c 1
 3932.16015625 0 l 1
 3992.4921875 164.7734375 4055.30761719 328.638671875 4120.57617188 491.51953125 c 0
 4390.62207031 1165.43359375 4702.72460938 1822.49121094 5054.46386719 2457.59960938 c 1
  Spiro
    5046.27 2457.6 v
    4120.58 516.096 o
    3923.97 0 v
    3932.16 0 v
    4120.58 491.52 o
    5054.46 2457.6 v
    0 0 z
  EndSpiro
2596.86425781 0 m 1
 2942.29394531 179.315429688 3269.47167969 393.768554688 3571.71191406 638.975585938 c 0
 4183.39550781 1135.23535156 4691.55859375 1758.50683594 5054.46386719 2457.59960938 c 1
 5046.27246094 2457.59960938 l 1
 4679.73730469 1767.65234375 4175.41601562 1151.25976562 3571.71191406 655.360351562 c 0
 3266.890625 404.970703125 2937.0390625 185.0703125 2588.671875 0 c 1
 2596.86425781 0 l 1
  Spiro
    2596.86 0 v
    3571.71 638.976 o
    5054.46 2457.6 v
    5046.27 2457.6 v
    3571.71 655.36 o
    2588.67 0 v
    0 0 z
  EndSpiro
2048 8.1923828125 m 1
 1897.26367188 326.750976562 1863.91503906 696.609375 1941.50390625 1040.38378906 c 0
 1993.29003906 1269.83300781 2089.99609375 1487.76953125 2212.40917969 1688.62695312 c 0
 2334.82226562 1889.484375 2481.28222656 2078.140625 2662.40039062 2228.22363281 c 0
 2783.43066406 2328.515625 2923.42285156 2410.22363281 3077.25878906 2442.49414062 c 0
 3231.09375 2474.76367188 3398.296875 2452.11816406 3530.75195312 2367.48828125 c 0
 3661.62695312 2283.8671875 3751.99023438 2143.91796875 3787.55078125 1992.73535156 c 0
 3823.11132812 1841.55371094 3808.28515625 1681.98242188 3768.3203125 1531.90429688 c 0
 3708.56640625 1307.515625 3598.46582031 1099.32714844 3472.97558594 903.94921875 c 0
 3347.48535156 708.5703125 3202.75683594 525.311523438 3039.23242188 360.448242188 c 0
 2906.55859375 226.688476562 2761.08886719 105.58203125 2605.05566406 0 c 1
 2588.671875 0 l 1
 2756.6796875 108.760742188 2910.67773438 238.887695312 3047.42382812 385.024414062 c 0
 3334.87597656 692.21484375 3570.19726562 1053.52929688 3710.97558594 1449.984375 c 0
 3767.80273438 1610.01855469 3802.41601562 1782.04003906 3777.15429688 1949.97460938 c 0
 3764.52441406 2033.94238281 3736.60058594 2115.94238281 3692.13964844 2188.28417969 c 0
 3647.67773438 2260.625 3586.60839844 2322.86328125 3514.36816406 2367.48828125 c 0
 3388.59570312 2445.18066406 3231.64355469 2465.38378906 3086.91210938 2435.25683594 c 0
 2942.18066406 2405.12988281 2810.03515625 2329.47753906 2695.16796875 2236.41601562 c 0
 2510.36132812 2086.69238281 2361.92285156 1895.97851562 2236.72558594 1693.75 c 0
 2111.52734375 1491.52246094 2011.42480469 1272.12597656 1957.88769531 1040.38378906 c 0
 1877.75 693.493164062 1913.58984375 318.557617188 2072.57617188 0 c 1
 2048 8.1923828125 l 1
  Spiro
    2048 8.192 v
    1941.5 1040.38 o
    2662.4 2228.22 o
    3530.75 2367.49 o
    3768.32 1531.9 o
    3039.23 360.448 o
    2605.06 0 v
    2588.67 0 v
    3047.42 385.024 o
    3710.98 1449.98 o
    3514.37 2367.49 o
    2695.17 2236.42 o
    1957.89 1040.38 o
    2072.58 0 v
    0 0 z
  EndSpiro
EndSplineSet
Validated: 37
EndChar

StartChar: Z
Encoding: 26 90 16
Width: 4096
VWidth: 0
Flags: HW
LayerCount: 3
Fore
SplineSet
1289 -1 m 1
 1210 221 1101 569 1156 977 c 0
 1199 1293 1311 1602 1496 1862 c 0
 1681 2122 1943 2336 2251 2422 c 0
 2613 2523 2937 2412 3128 2213 c 0
 3325 2008 3408 1676 3298 1334 c 0
 3136 828 2633 329 2200 82 c 0
 1966 -52 1838 5 2108 208 c 0
 2541 533 2883 294 2679 -72 c 0
 2385 -598 1838 -1191 1540 -1481 c 0
 1231 -1782 1220 -1624 1389 -1356 c 0
 1966 -442 3072 279 3678 818 c 1
 3695 819 l 1
 3097 278 1983 -450 1401 -1368 c 0
 1228 -1641 1253 -1753 1556 -1442 c 0
 1841 -1150 2355 -606 2662 -66 c 4
 2867 294 2506 508 2105 188 c 0
 1883 11 1958 -41 2212 106 c 0
 2627 347 3091 848 3247 1334 c 0
 3350 1654 3304 2004 3113 2195 c 0
 2934 2375 2628 2504 2253 2400 c 0
 1951 2316 1695 2106 1514 1851 c 0
 1333 1596 1213 1277 1171 967 c 0
 1115 554 1221 222 1303 0 c 1
 1289 -1 l 1
EndSplineSet
Validated: 37
EndChar

StartChar: Q
Encoding: 17 81 17
Width: 4096
VWidth: 0
Flags: HW
LayerCount: 3
Fore
SplineSet
1335 0 m 17
 1260 128 1202 267 1163 410 c 0
 1122 561 1102 716 1102 872 c 0
 1102 1206 1194 1542 1368 1827 c 0
 1513 2065 1723 2279 1981 2384 c 0
 2096 2431 2228 2465 2352 2465 c 0
 2367 2465 2383 2465 2398 2464 c 0
 2537 2457 2683 2416 2802 2343 c 0
 2947 2254 3046 2102 3113 1946 c 0
 3162 1832 3185 1708 3185 1584 c 0
 3185 1538 3181 1492 3175 1446 c 0
 3152 1278 3087 1116 2997 972 c 0
 2907 828 2791 701 2662 590 c 0
 2326 300 1910 112 1475 25 c 0
 1393 9 1355 4 1319 8 c 0
 1140 29 1131 169 1393 57 c 4
 1450 32 1533 -9 1729 0 c 4
 2852 50 3408 819 3408 819 c 13
 3397 819 l 17
 3397 819 2852 64 1722 8 c 4
 1521 -2 1452 43 1393 67 c 4
 1110 183 1135 21 1318 0 c 0
 1356 -4 1385 0 1469 17 c 0
 1913 106 2337 281 2680 577 c 0
 2811 690 2937 820 3029 967 c 0
 3121 1114 3187 1279 3211 1451 c 0
 3217 1498 3221 1544 3221 1591 c 0
 3221 1718 3198 1844 3148 1960 c 0
 3080 2119 2962 2258 2814 2349 c 0
 2693 2423 2552 2465 2410 2472 c 0
 2395 2473 2379 2473 2364 2473 c 0
 2237 2473 2110 2447 1993 2399 c 0
 1730 2292 1516 2082 1368 1839 c 0
 1190 1548 1097 1206 1097 865 c 0
 1097 706 1117 547 1159 393 c 0
 1199 247 1250 131 1327 0 c 9
 1335 0 l 17
EndSplineSet
Validated: 37
EndChar

StartChar: C
Encoding: 3 67 18
Width: 4096
VWidth: 0
Flags: HW
LayerCount: 3
Fore
SplineSet
1655 557 m 4
 1712 786 1958 967 2114 1016 c 4
 2261 1063 2514 1045 2630 852 c 4
 2728 688 2657 440 2548 303 c 4
 2290 -23 1732 -154 1565 279 c 4
 1426 639 1592 1011 1786 1360 c 4
 1959 1671 2248 2027 2638 2376 c 4
 2794 2515 2875 2474 2777 2277 c 4
 2589 1902 2333 1598 2032 1262 c 4
 1670 858 1088 375 598 0 c 4
 566 -1 l 4
 1065 391 1657 873 2012 1269 c 4
 2307 1598 2573 1934 2751 2280 c 4
 2836 2446 2809 2496 2656 2360 c 4
 2274 2018 2018 1658 1845 1356 c 4
 1655 1023 1460 701 1589 297 c 4
 1729 -139 2269 -10 2523 303 c 4
 2631 437 2709 675 2613 836 c 4
 2500 1025 2245 1026 2117 987 c 4
 1930 930 1727 750 1671 557 c 4
 1655 557 l 4
EndSplineSet
Validated: 37
Layer: 2
SplineSet
1654.78417969 557.055664062 m 4
 1712.12792969 786.431640625 1957.88769531 966.65625 2113.53613281 1015.80761719 c 4
 2260.92773438 1062.35253906 2513.8984375 1044.85742188 2629.63183594 851.967773438 c 4
 2727.93554688 688.127929688 2656.63964844 440.51953125 2547.71191406 303.103515625 c 4
 2289.6484375 -22.4404296875 1732 -154.584960938 1564.671875 278.528320312 c 4
 1425.40820312 638.975585938 1591.6796875 1010.45605469 1785.85644531 1359.87207031 c 4
 1958.484375 1670.51367188 2247.76757812 2026.68847656 2637.82421875 2375.6796875 c 4
 2793.47167969 2514.94433594 2875.39160156 2473.984375 2777.08789062 2277.37597656 c 4
 2589.35253906 1901.90625 2332.13574219 1597.78417969 2031.61621094 1261.56835938 c 4
 1670.08691406 857.095703125 1088.41601562 375.103515625 598.015625 0 c 4
 566.48046875 -0.81640625 l 4
 1065.58398438 391.192382812 1656.58398438 873.151367188 2011.54394531 1268.94433594 c 4
 2307.04003906 1598.43164062 2573.28417969 1933.85058594 2751.28027344 2280.16015625 c 4
 2836.57617188 2446.11230469 2808.29589844 2496.59179688 2655.76757812 2360.11230469 c 4
 2273.51171875 2018.10351562 2017.94335938 1658.87695312 1845.24804688 1356.43164062 c 4
 1654.95996094 1023.17578125 1459.08007812 701.072265625 1588.51171875 296.711914062 c 4
 1728.02539062 -139.127929688 2269.27929688 -10.328125 2523.13574219 303.103515625 c 4
 2631.29589844 436.646484375 2709.58398438 675.015625 2613.24804688 835.583984375 c 4
 2499.83203125 1024.61621094 2245.671875 1026.45605469 2117.22363281 987.135742188 c 4
 1930.28613281 929.911132812 1727.12011719 749.568359375 1671.16796875 557.055664062 c 4
 1654.78417969 557.055664062 l 4
EndSplineSet
EndChar

StartChar: D
Encoding: 4 68 19
Width: 4096
VWidth: 0
Flags: HW
LayerCount: 3
Fore
SplineSet
2720 262 m 0
 2450 33 2327 -33 2130 -90 c 0
 1311 -328 881 90 820 777 c 0
 782 1211 983 1705 1293 1997 c 4
 2155 2810 2892 2440 2977 1679 c 4
 3044 1074 2725 513 2402 262 c 0
 2047 -13 1630 -57 1311 65 c 0
 1282 76 1255 85 1230 86 c 0
 1005 94 1072 -4 1181 6 c 0
 1650 50 1946 615 2265 962 c 0
 2546 1267 2892 1556 3309 1636 c 1
 3334 1638 l 1
 2908 1556 2597 1269 2310 958 c 0
 1984 604 1712 74 1237 0 c 0
 1009 -35 1008 123 1237 98 c 0
 1260 96 1285 88 1311 78 c 0
 1630 -49 2022 3 2376 262 c 0
 2705 503 3023 1077 2960 1671 c 4
 2879 2439 2097 2777 1327 1982 c 4
 1024 1670 829 1213 868 770 c 0
 930 70 1327 -312 2130 -74 c 0
 2305 -22 2408 24 2703 262 c 0
 2720 262 l 0
EndSplineSet
Validated: 37
EndChar

StartChar: E
Encoding: 5 69 20
Width: 4096
VWidth: 0
Flags: HW
LayerCount: 3
Fore
SplineSet
2671 2458 m 5
 2524 2458 2394 2415 2335 2376 c 4
 2261 2327 2205 2260 2195 2195 c 4
 2179 2093 2278 2073 2343 2114 c 4
 2383 2139 2427 2185 2449 2236 c 4
 2536 2437 2322 2504 2130 2433 c 4
 1943 2364 1843 2195 1827 2064 c 4
 1804 1877 1915 1741 2056 1688 c 4
 2277 1605 2309 1702 2122 1679 c 4
 2056 1671 1794 1638 1589 1499 c 4
 1371 1351 1171 1073 1130 778 c 4
 1028 47 1726 -236 2212 229 c 4
 2459 465 2569 804 2544 1081 c 4
 2502 1546 2053 1678 1663 1425 c 4
 1381 1242 1161 779 1368 319 c 5
 1376 319 l 5
 1181 771 1400 1240 1671 1409 c 4
 2046 1643 2484 1518 2525 1073 c 4
 2550 807 2434 463 2196 235 c 4
 1720 -220 1080 70 1180 786 c 4
 1220 1075 1392 1346 1606 1491 c 4
 1807 1627 2058 1659 2122 1671 c 4
 2281 1702 2282 1613 2056 1696 c 4
 1930 1743 1817 1873 1843 2056 c 4
 1859 2168 1917 2343 2130 2425 c 4
 2310 2494 2524 2440 2444 2245 c 4
 2422 2191 2378 2144 2343 2122 c 4
 2277 2081 2189 2096 2204 2195 c 4
 2214 2260 2263 2319 2335 2367 c 4
 2392 2405 2526 2449 2671 2449 c 5
 2671 2458 l 5
EndSplineSet
Validated: 37
EndChar

StartChar: I
Encoding: 9 73 21
Width: 4096
VWidth: 0
Flags: W
HStem: 0 21G<1475 1485>
VStem: 1475 16<0 180.295>
LayerCount: 3
Fore
SplineSet
1475 0 m 1
 1454 667 1573 1171 1751 1540 c 0
 1918 1887 2155 2090 2337 2245 c 0
 2704 2556 3253 2588 2949 1909 c 0
 2725 1409 2319 937 1925 557 c 4
 1683 324 1295 18 893 0 c 0
 576 -15 325 182 213 401 c 0
 133 557 114 748 182 918 c 0
 293 1195 609 1352 958 1283 c 0
 1240 1227 1520 1086 1671 877 c 1
 1663 868 l 1
 1510 1079 1214 1212 958 1262 c 0
 602 1331 309 1163 205 918 c 0
 129 740 157 555 231 410 c 0
 345 189 582 7 885 33 c 0
 1307 70 1656 377 1902 606 c 4
 2296 972 2718 1407 2933 1925 c 0
 3238 2659 2595 2427 2353 2220 c 0
 2172 2065 1958 1879 1781 1524 c 0
 1600 1161 1479 655 1491 0 c 1
 1475 0 l 1
EndSplineSet
Validated: 37
EndChar

StartChar: J
Encoding: 10 74 22
Width: 4096
VWidth: 0
Flags: HW
LayerCount: 3
Fore
SplineSet
2089 0 m 1
 2006 448 1937 1374 2310 2015 c 0
 2749 2769 3287 2327 2831 1573 c 0
 2715 1381 2168 503 1711 -172 c 0
 1461 -542 1287 -758 1106 -955 c 0
 934 -1143 702 -1383 549 -1488 c 0
 221 -1714 186 -1625 393 -1253 c 0
 780 -559 1499 32 3031 786 c 0
 3039 819 l 0
 1466 41 742 -555 360 -1245 c 0
 116 -1687 268 -1719 582 -1513 c 0
 828 -1352 999 -1188 1171 -999 c 0
 1335 -819 1524 -524 1753 -180 c 0
 2203 497 2741 1346 2859 1540 c 0
 3339 2330 2773 2870 2286 2032 c 0
 1906 1378 1988 457 2073 0 c 1
 2089 0 l 1
EndSplineSet
Validated: 37
EndChar

StartChar: U
Encoding: 21 85 23
Width: 4096
VWidth: 0
Flags: HW
LayerCount: 3
Fore
SplineSet
3228 1638 m 1
 2968 1067 2831 755 2771 557 c 0
 2552 -166 3146 -66 3703 385 c 0
 3841 497 3966 645 4096 819 c 1
 4121 819 l 1
 3993 636 3869 492 3736 382 c 0
 3195 -66 2491 -240 2749 573 c 0
 2815 780 2952 1102 3195 1638 c 1
 3228 1638 l 1
1352 0 m 1
 1090 344 983 613 935 995 c 0
 889 1366 998 1991 1457 2295 c 0
 1967 2633 2402 2407 2376 1868 c 0
 2368 1696 2307 1312 2122 967 c 0
 2044 822 1880 580 1821 426 c 0
 1632 -68 2008 -66 2327 221 c 4
 2663 523 2906 1036 3203 1638 c 1
 3236 1638 l 1
 2950 1045 2683 504 2351 205 c 4
 2020 -93 1597 -93 1788 434 c 0
 1843 586 1990 844 2064 983 c 0
 2252 1335 2347 1695 2351 1851 c 0
 2368 2440 1918 2571 1458 2261 c 0
 1032 1974 909 1371 958 991 c 0
 1013 561 1114 369 1376 0 c 1
 1352 0 l 1
EndSplineSet
Validated: 37
EndChar

StartChar: Y
Encoding: 25 89 24
Width: 4096
VWidth: 0
Flags: HW
LayerCount: 3
Fore
SplineSet
3473 819 m 5
 2711 327 2101 -193 1558 -803 c 4
 647 -1827 852 -1909 1666 -918 c 4
 2275 -176 2744 573 3203 1638 c 13
 3228 1638 l 21
 2777 573 2315 -165 1695 -918 c 4
 811 -1991 632 -1810 1540 -778 c 4
 2071 -174 2736 360 3441 819 c 13
 3473 819 l 5
1352 0 m 1
 1090 344 983 613 935 995 c 0
 889 1366 998 1991 1457 2295 c 0
 1967 2633 2402 2407 2376 1868 c 0
 2368 1696 2307 1312 2122 967 c 0
 2044 822 1880 580 1821 426 c 0
 1632 -68 2008 -66 2327 221 c 0
 2663 523 2906 1036 3203 1638 c 1
 3236 1638 l 1
 2950 1045 2683 504 2351 205 c 0
 2020 -93 1597 -93 1788 434 c 0
 1843 586 1990 844 2064 983 c 0
 2252 1335 2347 1695 2351 1851 c 0
 2368 2440 1918 2571 1458 2261 c 0
 1032 1974 909 1371 958 991 c 0
 1013 561 1114 369 1376 0 c 1
 1352 0 l 1
EndSplineSet
Validated: 37
EndChar

StartChar: V
Encoding: 22 86 25
Width: 4096
VWidth: 0
Flags: HW
LayerCount: 3
Fore
SplineSet
1352 0 m 1
 1090 344 983 613 935 995 c 0
 889 1366 998 1991 1457 2295 c 0
 1967 2633 2402 2407 2376 1868 c 0
 2368 1696 2307 1312 2122 967 c 0
 2044 822 1875 581 1821 426 c 0
 1647 -74 2077 -108 2324 336 c 0
 2432 530 2656 1007 2892 1270 c 0
 3031 1426 3236 1564 3424 1630 c 1
 3457 1630 l 1
 3252 1540 3056 1419 2925 1270 c 0
 2695 1009 2472 558 2343 319 c 4
 2090 -150 1606 -82 1788 434 c 0
 1842 586 1990 844 2064 983 c 0
 2252 1335 2347 1695 2351 1851 c 0
 2368 2440 1918 2571 1458 2261 c 0
 1032 1974 909 1371 958 991 c 0
 1013 561 1114 369 1376 0 c 1
 1352 0 l 1
EndSplineSet
Validated: 33
EndChar

StartChar: i
Encoding: 35 105 26
Width: 2678
VWidth: 0
Flags: HW
HStem: 0 172G<147 317> 655 164G<1475 1614 1487 1614 2159 2335> 1622 33<2318 2351>
VStem: 2318 33<1622 1655>
LayerCount: 3
Fore
SplineSet
2318 1638 m 4
 2318 1646 2327 1655 2335 1655 c 4
 2343 1655 2351 1646 2351 1638 c 4
 2351 1630 2343 1622 2335 1622 c 4
 2327 1622 2318 1630 2318 1638 c 4
2310 819 m 9
 2335 819 l 17
 2032 557 1695 344 1343 147 c 16
 819 -140 858 33 1049 262 c 0
 1213 458 1360 606 1589 819 c 9
 1614 819 l 17
 1385 606 1235 460 1073 262 c 0
 852 -8 878 -88 1352 172 c 8
 1706 366 2007 557 2310 819 c 9
EndSplineSet
Refer: 52 -1 N 1 0 0 1 0 0 2
Validated: 33
MultipleSubs2: "'ccmp' For decomposing lowercase letters-1" part0 part58 part6 part62
EndChar

StartChar: u
Encoding: 47 117 27
Width: 2909
VWidth: 0
Flags: HW
LayerCount: 3
Fore
SplineSet
2884 819 m 13
 2909 819 l 21
 2606 557 2270 344 1918 147 c 20
 1394 -140 1432 33 1623 262 c 4
 1787 458 1934 606 2163 819 c 13
 2188 819 l 21
 1959 606 1809 460 1647 262 c 4
 1426 -8 1452 -88 1926 172 c 12
 2280 366 2581 557 2884 819 c 13
2163 819 m 13
 2188 819 l 21
 1885 557 1549 344 1197 147 c 20
 673 -140 711 33 902 262 c 4
 1066 458 1213 606 1442 819 c 13
 1467 819 l 21
 1238 606 1088 460 926 262 c 4
 705 -8 731 -88 1205 172 c 12
 1559 366 1860 557 2163 819 c 13
EndSplineSet
Refer: 52 -1 S 1 0 0 1 -147 0 2
Validated: 37
MultipleSubs2: "'ccmp' For decomposing lowercase letters-1" part0 part6 part62 part6 part62
EndChar

StartChar: w
Encoding: 49 119 28
Width: 3154
VWidth: 0
Flags: HW
LayerCount: 3
Fore
SplineSet
3154 819 m 1
 3105 778 3056 762 3015 762 c 0
 2982 762 2925 778 2884 819 c 1
 2909 819 l 17
 2942 794 2990 778 3015 778 c 4
 3048 778 3097 794 3130 819 c 9
 3154 819 l 1
2884 819 m 13
 2909 819 l 21
 2606 557 2269 344 1917 147 c 20
 1393 -140 1431 33 1622 262 c 4
 1786 458 1934 606 2163 819 c 13
 2188 819 l 21
 1959 606 1809 460 1647 262 c 4
 1426 -8 1452 -88 1926 172 c 12
 2280 366 2581 557 2884 819 c 13
2163 819 m 13
 2188 819 l 21
 1885 557 1548 344 1196 147 c 20
 672 -140 711 33 902 262 c 4
 1066 458 1213 606 1442 819 c 13
 1467 819 l 21
 1238 606 1088 460 926 262 c 4
 705 -8 731 -88 1205 172 c 12
 1559 366 1860 557 2163 819 c 13
EndSplineSet
Refer: 52 -1 N 1 0 0 1 -147 0 2
Validated: 37
MultipleSubs2: "'ccmp' For decomposing lowercase letters-1" part0 part6 part62 part6 part62 part17
EndChar

StartChar: c
Encoding: 29 99 29
Width: 2678
VWidth: 0
Flags: HW
HStem: 0 844 655 164G<3154 3170 3674 3850>
LayerCount: 3
Fore
SplineSet
1835 0 m 5x80
 2104 83 2364 196 2608 336 c 4
 2847 473 3096 660 3301 844 c 5
 3318 836 l 5
 3115 644 2855 458 2613 319 c 4
 2380 185 2133 78 1876 0 c 5
 1835 0 l 5x80
3043 754 m 4
 2844 625 2671 421 2523 246 c 4
 2343 33 2344 -104 2818 156 c 4
 3172 350 3523 557 3826 819 c 13
 3850 819 l 21x40
 3547 557 3186 344 2834 147 c 20
 2310 -140 2324 33 2515 262 c 4
 2664 440 2823 630 3027 762 c 4
 3318 950 3399 820 3301 705 c 4
 3229 621 3113 631 3170 713 c 5
 3195 729 l 5
 3113 623 3258 667 3293 713 c 4
 3375 819 3309 926 3043 754 c 4
EndSplineSet
Validated: 37
MultipleSubs2: "'ccmp' For decomposing lowercase letters-1" part0 part18 part62
EndChar

StartChar: e
Encoding: 31 101 30
Width: 2678
VWidth: 0
Flags: HW
HStem: 0 172G<2540 2709> 655 164G<4354 4530>
LayerCount: 3
Fore
SplineSet
3629 664 m 0
 3472 537 3366 403 3244 254 c 4
 3056 25 3064 -98 3539 164 c 4
 3892 359 4203 557 4506 819 c 1
 4530 819 l 17
 4227 557 3899 344 3547 147 c 16
 3023 -140 3044 42 3228 262 c 0
 3356 416 3455 543 3621 680 c 0
 3899 909 4063 835 3760 607 c 0
 3616 499 3467 404 3318 319 c 0
 3085 185 2837 78 2580 0 c 1
 2540 0 l 1
 2809 83 3068 196 3312 336 c 0
 3465 423 3605 507 3752 620 c 0
 4031 835 3891 877 3629 664 c 0
EndSplineSet
Validated: 37
MultipleSubs2: "'ccmp' For decomposing lowercase letters-1" part21 part20 part62
EndChar

StartChar: r
Encoding: 44 114 31
Width: 2253
VWidth: 0
Flags: HW
LayerCount: 3
Fore
SplineSet
1557 950 m 5
 1532 795 l 5
 1508 795 l 5
 1532 950 l 5
 1557 950 l 5
2229 819 m 13
 2253 819 l 21
 1950 557 1609 339 1254 147 c 4
 738 -132 768 33 959 262 c 4
 1123 458 1279 582 1508 795 c 13
 1532 795 l 21
 1303 582 1149 456 983 262 c 4
 759 0 788 -88 1262 172 c 12
 1616 366 1926 557 2229 819 c 13
0 0 m 5
 269 83 529 229 773 369 c 4
 1012 506 1327 766 1532 950 c 5
 1557 950 l 5
 1354 758 1021 491 779 352 c 4
 546 218 298 78 41 0 c 5
 0 0 l 5
EndSplineSet
Validated: 37
MultipleSubs2: "'ccmp' For decomposing lowercase letters-1" part0 part36
EndChar

StartChar: s
Encoding: 45 115 32
Width: 2180
VWidth: 0
Flags: HW
LayerCount: 3
Fore
SplineSet
1139 8 m 5
 1462 32 1615 131 1754 270 c 4
 1873 389 2040 639 2163 819 c 5
 2180 819 l 5
 2070 650 1895 388 1770 262 c 4
 1623 114 1418 0 1139 0 c 5
 1139 8 l 5
1549 950 m 21
 1549 950 1524 909 1508 860 c 4
 1450 687 1463 601 1491 393 c 4
 1551 -54 869 -164 861 295 c 13
 877 295 l 5
 893 -139 1510 -45 1467 385 c 4
 1451 548 1433 687 1491 860 c 4
 1507 909 1532 950 1532 950 c 5
 1549 950 l 21
0 0 m 5
 269 83 529 229 773 369 c 4
 1012 506 1327 766 1532 950 c 5
 1557 950 l 5
 1354 758 1021 491 779 352 c 4
 546 218 298 78 41 0 c 5
 0 0 l 5
EndSplineSet
Validated: 37
MultipleSubs2: "'ccmp' For decomposing lowercase letters-1" part0 part37
EndChar

StartChar: n
Encoding: 40 110 33
Width: 2464
VWidth: 0
Flags: HW
LayerCount: 3
Fore
SplineSet
1524 410 m 4
 2024 1049 1409 901 631 0 c 9
 606 0 l 1
 1438 971 2031 1038 1546 410 c 4
 1046 -229 1661 -82 2439 819 c 13
 2464 819 l 5
 1632 -152 1039 -218 1524 410 c 4
917 410 m 0
 1417 1049 802 901 24 0 c 9
 0 0 l 1
 832 971 1433 1041 940 410 c 0
 940 410 754 164 631 0 c 29
 606 0 l 25
 729 164 432 -218 917 410 c 0
EndSplineSet
Validated: 37
MultipleSubs2: "'ccmp' For decomposing lowercase letters-1" part12 part11
EndChar

StartChar: m
Encoding: 39 109 34
Width: 3070
VWidth: 0
Flags: HW
LayerCount: 3
Fore
SplineSet
2130 410 m 0
 2630 1049 2015 901 1237 0 c 9
 1212 0 l 1
 2044 971 2638 1038 2153 410 c 0
 1653 -229 2267 -82 3045 819 c 9
 3070 819 l 1
 2238 -152 1645 -218 2130 410 c 0
917 410 m 4
 1417 1049 802 901 24 0 c 13
 0 0 l 5
 832 971 1433 1041 940 410 c 4
 940 410 754 164 631 0 c 29
 606 0 l 29
 729 164 432 -218 917 410 c 4
1524 410 m 0
 2024 1049 1409 901 631 0 c 9
 606 0 l 1
 1438 971 2039 1041 1546 410 c 0
 1546 410 1360 164 1237 0 c 25
 1212 0 l 25
 1335 164 1039 -218 1524 410 c 0
EndSplineSet
Validated: 37
MultipleSubs2: "'ccmp' For decomposing lowercase letters-1" part12 part12 part11
EndChar

StartChar: x
Encoding: 50 120 35
Width: 1858
VWidth: 0
Flags: HW
HStem: 0 21G<-164 252 401 459.006> 799 20G<1278 1694 1392.19 1458>
LayerCount: 3
Fore
SplineSet
401 0 m 29
 1417 819 l 29
 1458 819 l 29
 434 0 l 29
 401 0 l 29
EndSplineSet
Refer: 62 -1 S 1 0 0 1 -164 0 2
MultipleSubs2: "'ccmp' For decomposing lowercase letters-1" part42
EndChar

StartChar: v
Encoding: 48 118 36
Width: 1859
VWidth: 0
Flags: HW
HStem: 0 172G<0 416> 655 164G<1106 1522>
LayerCount: 3
Fore
SplineSet
917 410 m 4
 1417 1049 802 901 24 0 c 13
 0 0 l 5
 832 971 1425 1038 940 410 c 4
 440 -229 727 -66 1497 819 c 13
 1522 819 l 5
 690 -152 432 -218 917 410 c 4
1859 819 m 1
 1703 753 1646 753 1499 819 c 1
 1524 819 l 17
 1647 770 1704 770 1835 819 c 9
 1859 819 l 1
EndSplineSet
Validated: 37
MultipleSubs2: "'ccmp' For decomposing lowercase letters-1" part55 part57
EndChar

StartChar: o
Encoding: 41 111 37
Width: 1671
VWidth: 0
Flags: W
HStem: 0 21G<0 83.5> 745 17<1429.83 1553.89> 799 20G<1093 1217>
LayerCount: 3
Fore
SplineSet
1344 811 m 5
 1388 777 1444 760 1499 762 c 4
 1553 764 1606 784 1647 819 c 5
 1671 819 l 5
 1622 768 1569 746 1499 745 c 4
 1430 744 1361 771 1311 811 c 5
 1344 811 l 5
418 434 m 0
 652 615 949 760 1237 819 c 1
 1213 795 l 1
 920 726 664 590 442 426 c 0
 281 307 142 161 25 0 c 1
 0 0 l 1
 117 164 258 311 418 434 c 0
904 574 m 0
 756 384 726 152 841 62 c 0
 956 -28 1177 55 1325 245 c 0
 1473 435 1494 675 1379 765 c 0
 1264 855 1052 764 904 574 c 0
886 588 m 0
 1047 794 1280 880 1402 778 c 0
 1519 680 1496 429 1343 231 c 0
 1183 24 951 -57 826 41 c 0
 701 139 725 382 886 588 c 0
EndSplineSet
Validated: 37
MultipleSubs2: "'ccmp' For decomposing lowercase letters-1" part56 part32 part57
EndChar

StartChar: t
Encoding: 46 116 39
Width: 2261
VWidth: 0
Flags: HW
LayerCount: 3
Fore
SplineSet
1344 1237 m 5
 2187 1237 l 5
 2187 1221 l 5
 1344 1221 l 5
 1344 1237 l 5
0 0 m 5
 269 83 574 197 773 295 c 4
 895 355 1279 563 1516 918 c 6
 1983 1638 l 5
 2007 1638 l 5
 1532 901 l 6
 1303 551 921 348 787 279 c 4
 566 164 314 78 57 0 c 5
 0 0 l 5
2007 1638 m 1
 2024 1638 l 1
 1229 393 l 2
 856 -185 1313 28 1589 229 c 0
 1865 430 2237 819 2237 819 c 1
 2261 819 l 1
 2261 819 1949 468 1606 213 c 0
 1319 0 810 -209 1213 410 c 2
 2007 1638 l 1
EndSplineSet
Validated: 37
MultipleSubs2: "'ccmp' For decomposing lowercase letters-1" part0 part39 part7
EndChar

StartChar: p
Encoding: 42 112 42
Width: 2825
VWidth: 0
Flags: HW
LayerCount: 3
Fore
SplineSet
2154 1638 m 29
 2179 1638 l 29
 286 -967 l 29
 237 -958 l 29
 2154 1638 l 29
0 0 m 5
 269 83 893 475 1081 606 c 4
 1288 750 1622 1015 2154 1638 c 5
 2187 1647 l 5
 1646 992 1294 729 1111 598 c 4
 893 442 306 78 49 0 c 5
 0 0 l 5
EndSplineSet
Refer: 62 -1 N 1 0 0 1 803 8 2
MultipleSubs2: "'ccmp' For decomposing lowercase letters-1" part14 part33 part11
EndChar

StartChar: l
Encoding: 38 108 43
Width: 4096
VWidth: 0
Flags: HW
HStem: 0 172G<573 1073> 655 164G<2515 2679>
LayerCount: 3
Fore
SplineSet
2679 819 m 5
 2409 549 2179 381 1933 221 c 4
 1327 -172 1229 -25 1491 573 c 0
 1685 1016 1969 1484 2425 2089 c 0
 2876 2687 3042 2511 2621 1892 c 0
 2134 1176 1540 688 606 0 c 1
 573 0 l 1
 1507 688 2118 1202 2605 1917 c 0
 2979 2465 2892 2662 2441 2064 c 0
 1968 1436 1715 995 1516 565 c 0
 1262 16 1328 -147 1901 229 c 4
 2162 400 2384 565 2646 819 c 1
 2679 819 l 5
EndSplineSet
Validated: 37
MultipleSubs2: "'ccmp' For decomposing lowercase letters-1" part14 part15 part6 part59
EndChar

StartChar: b
Encoding: 28 98 44
Width: 2351
VWidth: 0
Flags: HW
HStem: 0 172G<0 219> 655 164G<1565 2310>
LayerCount: 3
Fore
SplineSet
2310 819 m 5
 2031 604 1838 645 1662 805 c 5
 1489 529 1409 388 1237 208 c 4
 876 -170 654 -25 916 573 c 4
 942 632 984 710 1013 771 c 5
 734 534 405 274 33 0 c 5
 0 0 l 5
 396 292 736 553 1031 811 c 5
 1219 1186 1475 1590 1851 2089 c 4
 2302 2687 2469 2511 2048 1892 c 4
 1768 1480 1449 1144 1054 801 c 5
 1013 721 973.655961839 643.157868352 938 565 c 4
 688 17 869 -149 1221 221 c 4
 1401.42659564 410.652955646 1484 568 1647 819 c 5
 1671 819 l 5
 1876 655 2007 639 2286 819 c 5
 2310 819 l 5
1075 848 m 5
 1448 1180 1730.32711828 1468.77537929 2031 1907 c 4
 2422.05859375 2476.95996094 2313 2664 1868 2075 c 4
 1501.72865155 1590.20488936 1254 1191 1075 848 c 5
EndSplineSet
MultipleSubs2: "'ccmp' For decomposing lowercase letters-1" part14 part15 part61 part17
EndChar

StartChar: k
Encoding: 37 107 46
Width: 4096
VWidth: 0
Flags: HW
LayerCount: 3
Fore
SplineSet
1262 0 m 13
 1286 0 l 21
 1548 303 1909 647 2122 803 c 4
 2548 1114 2722 803 2441 639 c 4
 2343 582 1917 467 1917 467 c 5
 1917 467 1967 342 2015 246 c 4
 2162 -49 2423 -31 2580 74 c 4
 2875 271 2998 573 3113 819 c 13
 3088 819 l 5
 2965 557 2831 266 2564 90 c 4
 2427 0 2187 -24 2048 238 c 4
 1988 351 1942 459 1942 459 c 5
 1942 459 2359 557 2449 614 c 4
 2773 820 2550 1161 2106 819 c 4
 1893 655 1516 319 1262 0 c 13
EndSplineSet
Refer: 61 -1 N 1 0 0 1 0 0 2
MultipleSubs2: "'ccmp' For decomposing lowercase letters-1" part14 part15 part10 part27 part6 part62
EndChar

StartChar: f
Encoding: 32 102 50
Width: 3341
VWidth: 0
Flags: HW
HStem: 0 21G<553.996 976.496> 410 21G<1414 1488> 799 20G<1295.5 1414 2246 2315>
LayerCount: 3
Fore
SplineSet
1413.99511719 410 m 9
 1413.99511719 426 l 17
 1618.99511719 475 1699.99511719 486 1905.99511719 573 c 0
 2044.99511719 632 2192.99511719 721 2298.99511719 819 c 9
 2314.99511719 819 l 17
 2199.99511719 704 2044.99511719 615 1905.99511719 557 c 0
 1706.99511719 473 1561.99511719 443 1413.99511719 410 c 9
1413.99511719 410 m 1
 1438.99511719 418 l 1
 1151.99511719 -246 900.995117188 -735 783.995117188 -909 c 0
 46.9951171875 -2007 -357.004882812 -1786 422.995117188 -811 c 2
 2380.99511719 1638 l 2
 3364.99511719 2869 3846.99511719 2621 2568.99511719 1491 c 0
 1824.99511719 833 1373.99511719 532 578.995117188 0 c 1
 553.995117188 0 l 1
 1372.99511719 565 1840.99511719 856 2560.99511719 1507 c 0
 3838.99511719 2662 3313.99511719 2782 2396.99511719 1630 c 2
 447.995117188 -819 l 2
 -308.004882812 -1769 29.9951171875 -1974 766.995117188 -893 c 0
 884.995117188 -720 1126.99511719 -254 1413.99511719 410 c 1
EndSplineSet
MultipleSubs2: "'ccmp' For decomposing lowercase letters-1" part14 part15 part53 part54
EndChar

StartChar: z
Encoding: 52 122 51
Width: 2077
VWidth: 0
Flags: HW
LayerCount: 3
Fore
SplineSet
1307.05078125 0 m 9
 1332.05078125 0 l 1
 1365.05078125 49 1479.05078125 25 1422.05078125 -57 c 0
 1068.05078125 -563 995.05078125 -655 594.05078125 -1090 c 0
 -93.94921875 -1835 -196.94921875 -1745 463.05078125 -958 c 0
 685.05078125 -693 1037.05078125 -254 2077.05078125 410 c 1
 2044.05078125 410 l 1
 1012.05078125 -254 671.05078125 -678 447.05078125 -942 c 0
 -221.94921875 -1729 -117.94921875 -1901 611.05078125 -1106 c 0
 1011.05078125 -670 1069.05078125 -598 1438.05078125 -66 c 4
 1504.05078125 30 1364.05078125 82 1307.05078125 0 c 9
EndSplineSet
Refer: 63 -1 N 1 0 0 1 578.05 0 2
Validated: 37
MultipleSubs2: "'ccmp' For decomposing lowercase letters-1" part12 part52
EndChar

StartChar: part0
Encoding: 53 -1 52
Width: 1467
VWidth: 0
Flags: HW
HStem: 0 172G<0 170> 655 164G<1340 1467>
AnchorPoint: "Cursive" 1454 819 exit 0
LayerCount: 3
Fore
SplineSet
0 0 m 1
 269 83 529 196 773 336 c 0
 1012 473 1237 635 1442 819 c 1
 1467 819 l 1
 1264 627 1021 458 779 319 c 0
 546 185 298 78 41 0 c 1
 0 0 l 1
EndSplineSet
Validated: 1
Substitution2: "'aalt' For replacing starting part of glyphs with intermediate glyph for that connect two ghyphs-1" null1
EndChar

StartChar: part1
Encoding: 54 -1 53
Width: 1415
VWidth: 0
Flags: HW
HStem: 655 164G<555.967 694.967 1239.97 1415.97>
AnchorPoint: "Cursive" 1401.97 819 exit 0
AnchorPoint: "Cursive" 681.968 819.2 entry 0
LayerCount: 3
Fore
SplineSet
1390.96777344 819 m 9
 1415.96777344 819 l 17
 1112.96777344 557 775.967773438 344 423.967773438 147 c 16
 -100.032226562 -140 -61.0322265625 33 129.967773438 262 c 0
 293.967773438 458 440.967773438 606 669.967773438 819 c 9
 694.967773438 819 l 17
 465.967773438 606 315.967773438 460 153.967773438 262 c 0
 -67.0322265625 -8 -41.0322265625 -88 432.967773438 172 c 8
 786.967773438 366 1087.96777344 557 1390.96777344 819 c 9
EndSplineSet
Validated: 33
EndChar

StartChar: part3
Encoding: 55 -1 54
Width: 271
VWidth: 0
Flags: HW
LayerCount: 3
Fore
SplineSet
271 819 m 1
 222 778 172 762 131 762 c 0
 98 762 41 778 0 819 c 1
 25 819 l 17
 58 794 106 778 131 778 c 4
 164 778 213 794 246 819 c 9
 271 819 l 1
EndSplineSet
Validated: 1
EndChar

StartChar: part4
Encoding: 56 -1 55
Width: 1321
VWidth: 0
Flags: HW
HStem: 802 17<1095.32 1287.35>
AnchorPoint: "Cursive" 1315.35 819 exit 0
LayerCount: 3
Fore
SplineSet
1277.34765625 800 m 1
 1155.34765625 674 l 2
 934.34765625 453 644.027239313 213.522761326 477.34765625 111 c 0
 14 -174 -196.65234375 293 370.34765625 621 c 0
 609.34765625 759 837.34765625 786 1277.34765625 800 c 1
1321.34765625 819 m 1
 820.34765625 804 600.34765625 796 346.34765625 644 c 0
 -231.65234375 299 -17.65234375 -208 486.34765625 90 c 0
 667.34765625 197 936.34765625 426 1174.34765625 664 c 2
 1321.34765625 819 l 1
EndSplineSet
EndChar

StartChar: part5
Encoding: 57 -1 56
Width: 1425
VWidth: 0
Flags: HW
HStem: 786 17<1382.78 1425>
AnchorPoint: "Cursive" 1425 795 exit 0
LayerCount: 3
Fore
SplineSet
19 0 m 1
 134 205 516 702 1425 784 c 1
 1425 803 l 1
 502 718 147 246 0 0 c 1
 19 0 l 1
EndSplineSet
Substitution2: "'aalt' For replacing starting part of glyphs with intermediate glyph for that connect two ghyphs-1" null1
EndChar

StartChar: part6
Encoding: 58 -1 57
Width: 1235
VWidth: 0
Flags: HW
AnchorPoint: "Cursive" 307 410 exit 0
AnchorPoint: "Cursive" 627.839 819.2 entry 0
LayerCount: 3
Fore
SplineSet
293.743164062 409.599609375 m 5
 613.838867188 819 l 5
 637.838867188 819 l 5
 317.743164062 409.599609375 l 5
 293.743164062 409.599609375 l 5
EndSplineSet
EndChar

StartChar: part7
Encoding: 59 -1 58
Width: 1214
VWidth: 0
Flags: HW
AnchorPoint: "Cursive" 624 820 exit 0
AnchorPoint: "Cursive" 624 820 entry 0
LayerCount: 3
Fore
SplineSet
614.071289062 819.200195312 m 1
 1256 1638.40039062 l 1
 1280 1638.40039062 l 1
 638.071289062 819.200195312 l 1
 614.071289062 819.200195312 l 1
EndSplineSet
EndChar

StartChar: part8
Encoding: 60 -1 59
Width: 2212
VWidth: 0
Flags: HW
HStem: 655 164G<1558.52 1630.52 1704.52 2212.52>
AnchorPoint: "Cursive" 2051.04 820.2 exit 0
AnchorPoint: "Cursive" 1555.04 820 entry 0
LayerCount: 3
Fore
SplineSet
1541.51855469 812 m 1
 1566.51855469 820 l 1
 557 -819.200195312 l 2
 -109.627132262 -1901.63233124 -392 -1760 -91 -1260.73242188 c 0
 286.797851562 -634.081054688 810 -157 2038.51855469 820 c 1
 2063.51855469 820 l 1
 815 -181 305.465820312 -642.440429688 -74 -1269 c 0
 -375 -1766 -92.5928688368 -1834.21544014 541 -808.200195312 c 2
 1541.51855469 812 l 1
EndSplineSet
EndChar

StartChar: part9
Encoding: 61 -1 60
Width: 2225
VWidth: 0
Flags: W
HStem: 811 16<2204.1 2225.32>
AnchorPoint: "Cursive" 2225.32 819.2 exit 0
AnchorPoint: "Cursive" 1362.32 819 entry 0
LayerCount: 3
Fore
SplineSet
1348.31738281 811 m 25
 79.3173828125 -737 l 18
 -94.6826171875 -947 46.3173828125 -1000 226.317382812 -795 c 1
 873.317382812 -8 l 2
 1217.15820312 410.2421875 1733.31738281 713 2225.31738281 811 c 1
 2225.31738281 827 l 1
 1774.31738281 753 1220.78222656 440.583984375 849.317382812 -8 c 2
 218.317382812 -770 l 2
 85.3173828125 -930 -76.6826171875 -975 95.3173828125 -754 c 9
 1373.31738281 819 l 1
 1348.31738281 811 l 25
EndSplineSet
Validated: 41
EndChar

StartChar: part10
Encoding: 62 -1 61
Width: 1495
VWidth: 0
Flags: HW
AnchorPoint: "Cursive" 625 820 entry 0
AnchorPoint: "Cursive" -13 0 exit 0
LayerCount: 3
Fore
SplineSet
-26 0 m 25
 0 0 l 1
 639 819.200195312 l 25
 611 819.200195312 l 1
 -26 0 l 25
EndSplineSet
Substitution2: "'aalt' For replacing starting part of glyphs with intermediate glyph for that connect two ghyphs-1" null1
EndChar

StartChar: part11
Encoding: 63 -1 62
Width: 1858
VWidth: 0
Flags: HW
HStem: 0 21G<0 416> 799 20G<1442 1858>
AnchorPoint: "Cursive" 1098.9 410 exit 0
AnchorPoint: "Cursive" 15 0 entry 0
LayerCount: 3
Fore
SplineSet
1109.796875 409.599609375 m 1
 1682.14257812 1146.57910156 969.581054688 813.275390625 0.5947265625 0.19921875 c 1
 29.5947265625 0.19921875 l 1
 744.594726562 598.19921875 1728.59472656 1227.19921875 1086.21582031 409.599609375 c 0
 1086.21582031 409.599609375 1109.796875 409.599609375 1109.796875 409.599609375 c 1
EndSplineSet
Substitution2: "'aalt' For replacing starting part of glyphs with intermediate glyph for that connect two ghyphs-1" null2
EndChar

StartChar: part12
Encoding: 64 -1 63
Width: 1118
VWidth: 0
Flags: HW
AnchorPoint: "Cursive" 12 0 entry 0
AnchorPoint: "Cursive" 619 0 exit 0
LayerCount: 3
Fore
SplineSet
917 410 m 0
 1417 1049 802 901 24 0 c 9
 0 0 l 1
 832 971 1433 1041 940 410 c 0
 940 410 754 164 631 0 c 25
 606 0 l 25
 729 164 432 -218 917 410 c 0
EndSplineSet
Validated: 33
Substitution2: "'aalt' For replacing starting part of glyphs with intermediate glyph for that connect two ghyphs-1" null2
EndChar

StartChar: part53
Encoding: 66 -1 64
Width: 1742
VWidth: 0
Flags: HW
HStem: 398 20G<2399.82 2519.32> 815 21G<2830.32 2990.32>
AnchorPoint: "Cursive" 1728 819.2 entry 0
AnchorPoint: "Cursive" 1093 10 exit 0
LayerCount: 3
Fore
SplineSet
1716 819 m 1
 437.931640625 -814.400390625 l 2
 -281.135742188 -1722.02246094 -20.9296875 -1951.97460938 551 -1127.91015625 c 0
 916 -602 1100 9 1100 9 c 1
 1083 7 l 1
 1083 7 882.607421875 -627.57421875 542 -1116.26757812 c 0
 -14 -1914 -261.435546875 -1725.9140625 453.931640625 -824.400390625 c 2
 1742 819 l 1
 1716 819 l 1
-5050.67871094 279 m 1049
  Spiro
    -5050.68 279 {
    0 0 z
  EndSpiro
EndSplineSet
EndChar

StartChar: part13
Encoding: 67 -1 65
Width: 803
VWidth: 0
Flags: HW
AnchorPoint: "Cursive" 790.414 410.6 exit 0
AnchorPoint: "Cursive" 450.414 819 entry 0
LayerCount: 3
Fore
SplineSet
778.4140625 410 m 1
 704.4140625 346 620.4140625 282 550.4140625 229 c 0
 345.4140625 73 -252.5859375 -228 165.4140625 393 c 2
 460.4140625 819 l 1
 441.4140625 819 l 1
 157.4140625 410 l 2
 -267.5859375 -202 271.4140625 0 558.4140625 213 c 0
 641.4140625 275 725.4140625 343 803.4140625 410 c 1
 778.4140625 410 l 1
EndSplineSet
Validated: 41
EndChar

StartChar: part15
Encoding: 69 -1 67
Width: 1526
VWidth: 0
Flags: HW
HStem: 655 164G<-625.775 -600.775>
AnchorPoint: "Cursive" 15.2275 819.801 exit 0
AnchorPoint: "Cursive" 15.2275 819.801 entry 0
LayerCount: 3
Fore
SplineSet
873 1902 m 2
 1429.17480469 2610.59082031 1882 2670 1082 1797 c 0
 712.33203125 1393.60058594 425.349609375 1188.86816406 76.0087890625 884.065429688 c 1
 873 1902 l 2
29 819.200195312 m 1
 424 1162.20019531 707.9140625 1361.63378906 1096 1785 c 0
 1910 2673 1430.29296875 2646.22265625 859 1914 c 1
 572.71484375 1549.03808594 286.264648438 1184.13574219 0 819.200195312 c 1
 29 819.200195312 l 1
EndSplineSet
EndChar

StartChar: part17
Encoding: 71 -1 68
Width: 663
VWidth: 0
Flags: HW
AnchorPoint: "Cursive" 1403 819.719 exit 0
AnchorPoint: "Cursive" 1017 819.2 entry 0
LayerCount: 3
Fore
SplineSet
1004 819 m 1
 1030 819.200195312 l 1
 1172 725.200195312 1242 729.48046875 1389 819.200195312 c 1
 1418 818.913085938 l 1
 1243 708.193359375 1167 704 1004 819 c 1
EndSplineSet
EndChar

StartChar: part18
Encoding: 72 -1 69
Width: 1456
VWidth: 0
Flags: HW
HStem: 655 164G<760.3 776.3 1280.3 1456.3> 819 172G<880.3 909.3>
AnchorPoint: "Cursive" 305.217 409.6 exit 0
AnchorPoint: "Cursive" 870.3 819 entry 0
LayerCount: 3
Fore
SplineSet
858.299804688 819 m 1x40
 867.299804688 827 876.299804688 836 885.299804688 844 c 1
 902.299804688 836 l 1
 896.299804688 831 890.299804688 824 884.299804688 819 c 1
 858.299804688 819 l 1x40
317.65625 409.599609375 m 1
 293.916992188 409.599609375 l 1
 380.208984375 524.875976562 465.651367188 624.447265625 611.299804688 762 c 0
 863.173828125 999.875 983.299804688 820 885.299804688 705 c 0
 813.299804688 621 746 645 757.299804688 706 c 1
 779.299804688 742 l 1
 754 637 832.299804688 674 867.299804688 720 c 0
 949.299804688 826 845 944 634.299804688 754 c 0
 483.458007812 617.977539062 405.25 521.499023438 317.65625 409.599609375 c 1
EndSplineSet
EndChar

StartChar: part16
Encoding: 70 -1 70
Width: 602
VWidth: 0
Flags: HW
AnchorPoint: "Cursive" 587 410.6 exit 0
AnchorPoint: "Cursive" 9 819.2 entry 0
LayerCount: 3
Fore
SplineSet
17 819 m 1
 74 549 225 179 572 410 c 1
 602 410 l 1
 233 151 66 508 0 819 c 1
 17 819 l 1
EndSplineSet
Validated: 33
EndChar

StartChar: part14
Encoding: 68 -1 71
Width: 1237
VWidth: 0
Flags: HW
HStem: 0 21G<0 287> 799 20G<991 1237>
VStem: 0 1237
AnchorPoint: "Cursive" 1221 819.2 exit 0
LayerCount: 3
Fore
SplineSet
1237 819 m 17
 819 487 522 270 30 0 c 9
 0 0 l 17
 524 295 797 491 1207 819 c 9
 1237 819 l 17
EndSplineSet
Substitution2: "'aalt' For replacing starting part of glyphs with intermediate glyph for that connect two ghyphs-1" null1
EndChar

StartChar: part20
Encoding: 73 -1 72
Width: 1420
VWidth: 0
Flags: HW
HStem: 410 172G<329.247 408.247> 655 164G<1244.25 1420.25>
AnchorPoint: "Cursive" 251 410 exit 0
AnchorPoint: "Cursive" 345.247 410.199 entry 0
LayerCount: 3
Fore
SplineSet
240 410 m 1
 319.21875 502.940429688 400.277689097 590.031151304 511.247070312 680 c 4
 790 906 956 836 650.247070312 607 c 4
 554.838747289 535.541957081 457.247070312 471 359.247070312 410 c 1
 329.247070312 410 l 1
 435.247070312 473 533.836050386 540.862810019 640.247070312 620 c 4
 928 834 782 873 521.247070312 667 c 4
 419.889177537 586.925249021 339.228515625 499.060546875 263 410 c 1
 240 410 l 1
EndSplineSet
EndChar

StartChar: part21
Encoding: 74 -1 73
Width: 929
VWidth: 0
Flags: HW
HStem: 0 172G<0 169> 246 164G<878 929>
VStem: 0 930
AnchorPoint: "Cursive" 912 410 exit 0
LayerCount: 3
Fore
SplineSet
899 410 m 1
 929 410 l 1
 879 379 828 348 778 319 c 0
 545 185 298 78 41 0 c 1
 0 0 l 1
 269 83 528 196 772 336 c 0
 815 361 858 385 899 410 c 1
EndSplineSet
Validated: 1
EndChar

StartChar: part22
Encoding: 75 -1 74
Width: 1659
VWidth: 0
Flags: HW
LayerCount: 3
Fore
SplineSet
1629.51855469 410 m 5
 1014.51855469 -81 648.518554688 -520 377.518554688 -868 c 0
 -260.481445312 -1688 -18.4814453125 -2018 573.518554688 -1016 c 2
 1655.51855469 819 l 1
 1630.51855469 811 l 1
 557.518554688 -999 l 2
 -4.4814453125 -1946 -237.481445312 -1721 388.518554688 -885 c 0
 646.518554688 -540 1023.51855469 -97 1659.51855469 410 c 5
 1629.51855469 410 l 5
EndSplineSet
Validated: 37
EndChar

StartChar: part23
Encoding: 76 -1 75
Width: 1729
VWidth: 0
Flags: HW
LayerCount: 3
Fore
SplineSet
1303 2007 m 0
 1770 2613 1871 2552 1401 1917 c 0
 1145 1572 871 1240 539 899 c 1
 758 1252 1018 1637 1303 2007 c 0
0 0 m 5
 25 0 l 1
 137 216 294 498 485 811 c 1
 845 1175 1137 1524 1418 1892 c 0
 1933 2567 1754 2663 1287 2032 c 0
 820 1402 338 669 0 0 c 5
EndSplineSet
Validated: 41
EndChar

StartChar: part24
Encoding: 77 -1 76
Width: 1467
VWidth: 0
Flags: HW
HStem: 0 172G<0 416> 655 164G<1442 1858>
LayerCount: 3
Fore
SplineSet
1438 410 m 5
 871 -109 529 -115 940 410 c 0
 1425 1038 832 971 0 0 c 1
 24 0 l 17
 802 901 1417 1049 917 410 c 0
 513 -114 858 -154 1467 410 c 5
 1438 410 l 5
EndSplineSet
Validated: 41
EndChar

StartChar: part26
Encoding: 79 -1 77
Width: 863
VWidth: 0
Flags: HW
LayerCount: 3
Fore
SplineSet
837.967773438 410 m 5
 708.967773438 328 574.967773438 250 432.967773438 172 c 0
 -41.0322265625 -88 -67.0322265625 -8 153.967773438 262 c 0
 315.967773438 460 465.967773438 606 694.967773438 819 c 9
 669.967773438 819 l 17
 440.967773438 606 293.967773438 458 129.967773438 262 c 0
 -61.0322265625 33 -100.032226562 -140 423.967773438 147 c 0
 573.967773438 231 720.967773438 318 863.967773438 410 c 5
 837.967773438 410 l 5
EndSplineSet
Validated: 41
EndChar

StartChar: part27
Encoding: 80 -1 78
Width: 1851
VWidth: 0
Flags: HWO
AnchorPoint: "Cursive" 1038 820 exit 0
AnchorPoint: "Cursive" 12 0 entry 0
LayerCount: 3
Fore
SplineSet
1044 819.200195312 m 1
 1220 663 1484 752 1484.70639608 889.99999789 c 0
 1485.24060775 994.362425945 1312 1082 1054 947 c 0
 824.392406764 826.856491911 479 600 23 0 c 9
 0 0 l 1
 471 626 805.825863916 840.277690474 1045 963 c 0
 1312 1100 1495.16688891 1018.21185076 1498 886 c 0
 1501 746 1216 640 1044 804 c 1
 1044 819.200195312 l 1
EndSplineSet
EndChar

StartChar: part28
Encoding: 81 -1 79
Width: 1641
VWidth: 0
Flags: HW
LayerCount: 3
Fore
SplineSet
1610 410 m 5
 1529 287 1431 175 1302 90 c 0
 1165 0 925 -24 786 238 c 0
 726 351 680 459 680 459 c 1
 680 459 1097 557 1187 614 c 0
 1511 820 1288 1161 844 819 c 0
 631 655 254 319 0 0 c 9
 24 0 l 17
 286 303 647 647 860 803 c 0
 1286 1114 1460 803 1179 639 c 0
 1081 582 655 467 655 467 c 1
 655 467 705 342 753 246 c 0
 900 -49 1161 -31 1318 74 c 0
 1459 168 1561 286 1641 410 c 5
 1610 410 l 5
EndSplineSet
Validated: 41
EndChar

StartChar: part31
Encoding: 82 -1 80
Width: 727
VWidth: 0
Flags: HW
LayerCount: 3
Fore
SplineSet
0 410 m 5
 610 975 961 936 549 410 c 0
 549 410 363 164 240 0 c 25
 215 0 l 25
 338 164 41 -218 526 410 c 0
 937 935 595 929 28 410 c 5
 0 410 l 5
EndSplineSet
Validated: 33
EndChar

StartChar: part32
Encoding: 83 -1 81
Width: 729
VWidth: 0
Flags: HW
AnchorPoint: "Cursive" 580.559 811 exit 0
AnchorPoint: "Cursive" 478.559 807 entry 0
LayerCount: 3
Fore
SplineSet
157.55859375 574 m 0
 9.55859375 384 -20.44140625 152 94.55859375 62 c 0
 209.55859375 -28 430.55859375 55 578.55859375 245 c 0
 726.55859375 435 747.55859375 675 632.55859375 765 c 0
 517.55859375 855 305.55859375 764 157.55859375 574 c 0
139.55859375 588 m 0
 300.55859375 794 533.55859375 880 655.55859375 778 c 0
 772.55859375 680 749.55859375 429 596.55859375 231 c 0
 436.55859375 24 204.55859375 -57 79.55859375 41 c 0
 -45.44140625 139 -21.44140625 382 139.55859375 588 c 0
EndSplineSet
Validated: 33
EndChar

StartChar: part33
Encoding: 84 -1 82
Width: 1950
VWidth: 0
Flags: HW
AnchorPoint: "Cursive" 742 0.200195 exit 0
AnchorPoint: "Cursive" 1139 819.2 entry 0
LayerCount: 3
Fore
SplineSet
1119 819 m 1
 1316 987 1576 1239 1917 1638 c 1
 1950 1647 l 2
 1944 1640 1938 1631 1932 1624 c 2
 49 -967 l 1
 0 -958 l 1
 1750 1412 l 1
 1509 1138 1312 951 1158 819 c 1
 1119 819 l 1
EndSplineSet
Validated: 1
EndChar

StartChar: part34
Encoding: 85 -1 83
Width: 1373
VWidth: 0
Flags: W
AnchorPoint: "Cursive" 1289.32 418 exit 0
AnchorPoint: "Cursive" 1360.32 819.2 entry 0
LayerCount: 3
Fore
SplineSet
1276.31738281 418.200195312 m 1
 1111.31738281 299.200195312 983.317382812 150 849.317382812 -8 c 2
 218.317382812 -770 l 2
 85.3173828125 -930 -76.6826171875 -975 95.3173828125 -754 c 9
 1373.31738281 819 l 1
 1348.31738281 811 l 25
 79.3173828125 -737 l 18
 -94.6826171875 -947 46.3173828125 -1000 226.317382812 -795 c 1
 873.317382812 -8 l 2
 1006.31738281 149 1134.31738281 299.200195312 1304.31738281 418.200195312 c 1
 1276.31738281 418.200195312 l 1
EndSplineSet
Validated: 41
EndChar

StartChar: part35
Encoding: 86 -1 84
Width: 1421
VWidth: 0
Flags: HW
AnchorPoint: "Cursive" 1409.28 819.2 exit 0
AnchorPoint: "Cursive" 565.281 819.2 entry 0
LayerCount: 3
Fore
SplineSet
550.28125 819 m 1
 604.28125 865 655.28125 909 700.28125 950 c 1
 725.28125 950 l 1
 700.28125 795 l 1
 471.28125 582 317.28125 456 151.28125 262 c 0
 -72.71875 0 -43.71875 -88 430.28125 172 c 0
 784.28125 366 1094.28125 557 1397.28125 819 c 1
 1421.28125 819 l 1
 1118.28125 557 777.28125 339 422.28125 147 c 0
 -93.71875 -132 -63.71875 33 127.28125 262 c 0
 291.28125 458 447.28125 582 676.28125 795 c 1
 696.28125 923 l 1
 660.28125 890 621.28125 855 579.28125 819 c 1
 550.28125 819 l 1
EndSplineSet
Validated: 33
EndChar

StartChar: part36
Encoding: 87 -1 85
Width: 869
VWidth: 0
Flags: HW
AnchorPoint: "Cursive" 852.281 410.6 exit 0
AnchorPoint: "Cursive" 564.281 819.2 entry 0
LayerCount: 3
Fore
SplineSet
838.28125 410 m 1
 707.28125 328 572.28125 250 430.28125 172 c 0
 -43.71875 -88 -72.71875 0 151.28125 262 c 0
 317.28125 456 471.28125 582 700.28125 795 c 1
 725.28125 950 l 1
 700.28125 950 l 1
 655.28125 909 604.28125 865 550.28125 819 c 1
 579.28125 819 l 1
 621.28125 855 660.28125 890 696.28125 923 c 1
 676.28125 795 l 1
 447.28125 582 291.28125 458 127.28125 262 c 0
 -63.71875 33 -93.71875 -132 422.28125 147 c 0
 574.28125 229 724.28125 317 869.28125 410 c 1
 838.28125 410 l 1
EndSplineSet
Validated: 41
EndChar

StartChar: part37
Encoding: 88 -1 86
Width: 1319
VWidth: 0
Flags: HW
AnchorPoint: "Cursive" 1310 819.2 exit 0
AnchorPoint: "Cursive" 535 819.2 entry 0
LayerCount: 3
Fore
SplineSet
521 819 m 1
 575 865 626 909 671 950 c 1
 688 950 l 1
 696 950 l 2
 690 945 685 939 679 934 c 0
 670 918 657 890 647 860 c 0
 589 687 602 601 630 393 c 0
 655 204 548 75 415 24 c 1
 647 63 775 152 893 270 c 0
 1012 389 1179 639 1302 819 c 1
 1319 819 l 1
 1209 650 1034 388 909 262 c 0
 762 114 557 0 278 0 c 1
 278 0 l 1
 135 3 4 95 0 295 c 1
 16 295 l 1
 32 -139 649 -45 606 385 c 0
 590 548 572 687 630 860 c 0
 636 877 643 893 649 907 c 1
 618 879 585 849 550 819 c 1
 521 819 l 1
EndSplineSet
Validated: 37
EndChar

StartChar: part38
Encoding: 89 -1 87
Width: 1034
VWidth: 0
Flags: HW
AnchorPoint: "Cursive" 1022 410 exit 0
AnchorPoint: "Cursive" 535 819.2 entry 0
LayerCount: 3
Fore
SplineSet
1012 410 m 1
 969 355 929 306 893 270 c 0
 775 152 647 63 415 24 c 1
 548 75 655 204 630 393 c 0
 602 601 589 687 647 860 c 0
 657 890 670 918 679 934 c 0
 685 939 690 945 696 950 c 2
 688 950 l 1
 671 950 l 1
 626 909 575 865 521 819 c 1
 550 819 l 1
 585 849 618 879 649 907 c 1
 643 893 636 877 630 860 c 0
 572 687 590 548 606 385 c 0
 649 -45 32 -139 16 295 c 1
 0 295 l 1
 4 95 135 3 278 0 c 1
 278 0 l 1
 557 0 762 114 909 262 c 0
 947 300 990 352 1034 410 c 1
 1012 410 l 1
EndSplineSet
Validated: 37
EndChar

StartChar: part39
Encoding: 90 -1 88
Width: 843
VWidth: 0
Flags: HW
AnchorPoint: "Cursive" 1467 819.001 exit 0
AnchorPoint: "Cursive" 1457 819.2 entry 0
LayerCount: 3
Fore
SplineSet
1344 1237 m 1
 2187 1237 l 1
 2187 1221 l 1
 1344 1221 l 1
 1344 1237 l 1
1473.83448141 819.200195312 m 1
 1443.54129093 819.200195312 l 1
 1468.82092647 850.760052029 1493.09686816 883.693621086 1516 918 c 2
 1983 1638 l 1
 2007 1638 l 1
 1532 901 l 2
 1513.5360766 872.78002974 1494.07750742 845.515699546 1473.83448141 819.200195312 c 1
EndSplineSet
Validated: 5
EndChar

StartChar: part40
Encoding: 91 -1 89
Width: 863
VWidth: 0
Flags: HW
AnchorPoint: "Cursive" 849.968 409.6 exit 0
AnchorPoint: "Cursive" 680.968 819.2 entry 0
LayerCount: 3
Fore
SplineSet
837.967773438 410 m 1
 708.967773438 328 574.967773438 250 432.967773438 172 c 0
 -41.0322265625 -88 -67.0322265625 -8 153.967773438 262 c 0
 315.967773438 460 465.967773438 606 694.967773438 819 c 9
 669.967773438 819 l 17
 440.967773438 606 293.967773438 458 129.967773438 262 c 0
 -61.0322265625 33 -100.032226562 -140 423.967773438 147 c 0
 573.967773438 231 720.967773438 318 863.967773438 410 c 1
 837.967773438 410 l 1
EndSplineSet
Validated: 41
EndChar

StartChar: part41
Encoding: 92 -1 90
Width: 1131
VWidth: 0
Flags: HW
AnchorPoint: "Cursive" 1118 819.2 exit 0
AnchorPoint: "Cursive" 14 409.6 entry 0
LayerCount: 3
Fore
SplineSet
0 410 m 1
 608 974 953 934 549 410 c 0
 49 -229 336 -66 1106 819 c 9
 1131 819 l 1
 299 -152 41 -218 526 410 c 0
 937 935 595 929 28 410 c 1
 0 410 l 1
EndSplineSet
Validated: 33
EndChar

StartChar: part42
Encoding: 93 -1 91
Width: 1858
VWidth: 0
Flags: HW
LayerCount: 3
Fore
SplineSet
430 0 m 29
 1446 819 l 29
 1487 819 l 29
 463 0 l 29
 430 0 l 29
EndSplineSet
Refer: 62 -1 N 1 0 0 1 0 0 2
Substitution2: "'aalt' For replacing starting part of glyphs with intermediate glyph for that connect two ghyphs-1" null2
EndChar

StartChar: part43
Encoding: 94 -1 92
Width: 1467
VWidth: 0
Flags: HW
LayerCount: 3
Fore
SplineSet
0 410 m 1
 608 974 953 934 549 410 c 0
 49 -229 664 -82 1442 819 c 9
 1467 819 l 1
 635 -152 41 -218 526 410 c 0
 937 935 595 929 28 410 c 5
 0 410 l 1
10 0 m 25
 1026 819 l 25
 1067 819 l 25
 43 0 l 25
 10 0 l 25
EndSplineSet
Validated: 37
EndChar

StartChar: part44
Encoding: 95 -1 93
Width: 1076
VWidth: 0
Flags: HW
LayerCount: 3
Fore
SplineSet
1047 410 m 5
 480 -109 138 -115 549 410 c 0
 953 934 608 974 0 410 c 1
 28 410 l 1
 595 929 937 935 526 410 c 0
 122 -114 467 -154 1076 410 c 5
 1047 410 l 5
10 0 m 25
 1026 819 l 25
 1067 819 l 25
 43 0 l 25
 10 0 l 25
EndSplineSet
Validated: 37
EndChar

StartChar: part45
Encoding: 96 -1 94
Width: 1858
VWidth: 0
Flags: HW
LayerCount: 3
Fore
SplineSet
430 0 m 29
 1446 819 l 29
 1487 819 l 29
 463 0 l 29
 430 0 l 29
EndSplineSet
Refer: 62 -1 N 1 0 0 1 0 0 2
EndChar

StartChar: part50
Encoding: 97 -1 95
Width: 1076
VWidth: 0
Flags: HW
HStem: 0 172G<-391 25> 655 164G<1051 1467>
AnchorPoint: "Cursive" 1060 409 exit 0
AnchorPoint: "Cursive" 14 409.6 entry 0
LayerCount: 3
Fore
SplineSet
0 410 m 1
 608 974 953 934 549 410 c 0
 138 -115 480 -109 1047 410 c 1
 1076 410 l 1
 467 -154 122 -114 526 410 c 0
 937 935 595 929 28 410 c 1
 0 410 l 1
EndSplineSet
Validated: 33
EndChar

StartChar: part51
Encoding: 98 -1 96
Width: 2659
VWidth: 0
Flags: HW
AnchorPoint: "Cursive" 2641.05 819.2 exit 0
AnchorPoint: "Cursive" 1319.05 0 entry 0
LayerCount: 3
Fore
SplineSet
1307.05078125 0 m 1
 1332.05078125 0 l 1
 1586.05078125 156 1291.05078125 -253 1242.05078125 -319 c 0
 1007.05078125 -632 936.05078125 -720 594.05078125 -1090 c 0
 -93.94921875 -1835 -196.94921875 -1745 463.05078125 -958 c 0
 685.05078125 -693 1348.05078125 24 2659.05078125 819 c 1
 2626.05078125 819 l 1
 1323.05078125 24 671.05078125 -678 447.05078125 -942 c 0
 -221.94921875 -1729 -117.94921875 -1901 611.05078125 -1106 c 0
 952.05078125 -734 1025.05078125 -649 1258.05078125 -328 c 0
 1496.05078125 0 1512.05078125 131 1307.05078125 0 c 1
EndSplineSet
Validated: 37
EndChar

StartChar: part52
Encoding: 99 -1 97
Width: 2027
VWidth: 0
Flags: HW
AnchorPoint: "Cursive" 2011.05 409.6 exit 0
AnchorPoint: "Cursive" 1320.05 0 entry 0
LayerCount: 3
Fore
SplineSet
1997.05078125 410 m 1
 1107.05078125 -209 632.05078125 -725 447.05078125 -942 c 0
 -221.94921875 -1729 -117.94921875 -1901 611.05078125 -1106 c 0
 952.05078125 -734 1025.05078125 -649 1258.05078125 -328 c 0
 1496.05078125 0 1512.05078125 131 1307.05078125 0 c 1
 1332.05078125 0 l 1
 1586.05078125 156 1291.05078125 -253 1242.05078125 -319 c 0
 1007.05078125 -632 936.05078125 -720 594.05078125 -1090 c 0
 -93.94921875 -1835 -196.94921875 -1745 463.05078125 -958 c 0
 646.05078125 -739 1129.05078125 -213 2027.05078125 410 c 1
 1997.05078125 410 l 1
EndSplineSet
Validated: 37
EndChar

StartChar: part54
Encoding: 65 -1 98
Width: 1413
VWidth: 0
Flags: HW
AnchorPoint: "Cursive" 1400 818.8 exit 0
AnchorPoint: "Cursive" -11.9297 9 entry 0
LayerCount: 3
Fore
SplineSet
-11.9296875 0 m 9
 -11.9296875 19 l 17
 584.0703125 219 920.0703125 411 1387.00195312 818.599609375 c 9
 1415.00195312 818.599609375 l 17
 920.0703125 389 608.0703125 209 -11.9296875 0 c 9
EndSplineSet
EndChar

StartChar: part55
Encoding: 101 -1 100
Width: 1522
VWidth: 0
Flags: HW
HStem: 0 172G<0 416> 655 164G<1106 1522>
AnchorPoint: "Cursive" 1514 819.2 exit 0
LayerCount: 3
Fore
SplineSet
917 410 m 0
 1417 1049 802 901 24 0 c 9
 0 0 l 1
 832 971 1425 1038 940 410 c 0
 440 -229 727 -66 1497 819 c 9
 1522 819 l 1
 690 -152 432 -218 917 410 c 0
EndSplineSet
Validated: 33
Substitution2: "'aalt' For replacing starting part of glyphs with intermediate glyph for that connect two ghyphs-1" null2
EndChar

StartChar: part56
Encoding: 102 -1 101
Width: 1237
VWidth: 0
Flags: HW
AnchorPoint: "Cursive" 1225 807 exit 0
LayerCount: 3
Fore
SplineSet
418 434 m 0
 652 615 949 760 1237 819 c 1
 1213 795 l 1
 920 726 664 590 442 426 c 0
 281 307 142 161 25 0 c 1
 0 0 l 1
 117 164 258 311 418 434 c 0
EndSplineSet
Validated: 1
Substitution2: "'aalt' For replacing starting part of glyphs with intermediate glyph for that connect two ghyphs-1" null1
EndChar

StartChar: part57
Encoding: 103 -1 102
Width: 360
VWidth: 0
Flags: HW
AnchorPoint: "Cursive" 347 819.2 exit 0
AnchorPoint: "Cursive" 17 811 entry 0
LayerCount: 3
Fore
SplineSet
33 811 m 1
 77 777 133 760 188 762 c 0
 242 764 295 784 336 819 c 1
 360 819 l 1
 311 768 258 746 188 745 c 0
 119 744 50 771 0 811 c 1
 33 811 l 1
EndSplineSet
Validated: 33
EndChar

StartChar: part58
Encoding: 104 65279 103
Width: 2678
VWidth: 0
Flags: HW
AnchorPoint: "Cursive" 1820 814 exit 0
AnchorPoint: "Cursive" 1820 814 entry 0
LayerCount: 3
Fore
SplineSet
2422 1638 m 0
 2422 1646 2431 1655 2439 1655 c 0
 2447 1655 2455 1646 2455 1638 c 0
 2455 1630 2447 1622 2439 1622 c 0
 2431 1622 2422 1630 2422 1638 c 0
EndSplineSet
Validated: 1
EndChar

StartChar: part59
Encoding: 107 -1 106
Width: 1235
VWidth: 0
Flags: HW
AnchorPoint: "Cursive" 1404 819.2 exit 0
AnchorPoint: "Cursive" 922 409.6 entry 0
LayerCount: 3
Fore
SplineSet
907.07242959 409.599609375 m 1
 1152.11634762 598.375184161 1391.83886719 819 1391.83886719 819 c 1
 1416.83886719 819 l 1
 1416.83886719 819 1195.14991912 608.040055546 937.503994738 409.599609375 c 1
 907.07242959 409.599609375 l 1
EndSplineSet
EndChar

StartChar: part61
Encoding: 108 -1 107
Width: 1495
VWidth: 0
Flags: HW
AnchorPoint: "Cursive" 1018 819.2 exit 0
AnchorPoint: "Cursive" 627 819.2 entry 0
LayerCount: 3
Fore
SplineSet
616.276367188 819.200195312 m 5
 -142 -136 103 -131 486.989257812 208 c 0
 704.684570312 400.189453125 1030.98925781 819 1030.98925781 819 c 1
 1006.98925781 819 l 1
 1006.98925781 819 692.403764266 412.537867676 475 223 c 4
 108.971292092 -96.1126935601 -100 -133 639.3359375 819 c 5
 616.276367188 819.200195312 l 5
EndSplineSet
EndChar

StartChar: part62
Encoding: 109 -1 108
Width: 1858
VWidth: 0
Flags: HW
AnchorPoint: "Cursive" 2180 819.2 exit 0
AnchorPoint: "Cursive" 1096.8 409.6 entry 0
LayerCount: 3
Fore
SplineSet
1085.79785156 409.799804688 m 1
 513.452148438 -327.1796875 1226.01367188 6.1240234375 2195 819.200195312 c 1
 2166 819.200195312 l 1
 1451 221.200195312 467 -407.799804688 1109.37890625 409.799804688 c 0
 1109.37890625 409.799804688 1085.79785156 409.799804688 1085.79785156 409.799804688 c 1
EndSplineSet
EndChar
